<?xml version="1.0" encoding="UTF-8"?>
<svg id="_레이어_1" data-name="레이어 1" xmlns="http://www.w3.org/2000/svg" viewBox="0 0 200 200">
  <defs>
    <style>
      .cls-1 {
        fill: #698f43;
      }

      .cls-2 {
        fill: #8fba5c;
      }

      .cls-3 {
        fill: #87b25a;
      }

      .cls-4 {
        fill: #8fbb5b;
      }

      .cls-5 {
        fill: #688d42;
      }

      .cls-6 {
        fill: #698f44;
      }

      .cls-7 {
        fill: #fcfcfc;
      }

      .cls-8 {
        fill: #4f6045;
      }

      .cls-9 {
        fill: #8eb959;
      }

      .cls-10 {
        fill: #fff;
      }

      .cls-11 {
        fill: #717877;
      }

      .cls-12 {
        fill: #90ba5c;
      }

      .cls-13 {
        fill: #2d2c2a;
      }

      .cls-14 {
        fill: #f3eee2;
      }

      .cls-15 {
        fill: #8fbb5c;
      }

      .cls-16 {
        fill: #90b95a;
      }

      .cls-17 {
        fill: #2e2e2c;
      }

      .cls-18 {
        fill: #8fba5e;
      }

      .cls-19 {
        fill: #000101;
      }

      .cls-20 {
        fill: #d78654;
      }

      .cls-21 {
        fill: #f3ede1;
      }

      .cls-22 {
        fill: #fac53e;
      }

      .cls-23 {
        fill: #3e3e3c;
      }

      .cls-24 {
        fill: #8eba59;
      }

      .cls-25 {
        fill: #f2ece1;
      }

      .cls-26 {
        fill: #678d42;
      }

      .cls-27 {
        fill: #8fbb59;
      }

      .cls-28 {
        fill: #8fbb5d;
      }

      .cls-29 {
        fill: #000202;
      }

      .cls-30 {
        fill: #8fb95a;
      }

      .cls-31 {
        fill: #3d3d3b;
      }

      .cls-32 {
        fill: #678c41;
      }

      .cls-33 {
        fill: #3e3d3b;
      }

      .cls-34 {
        fill: #8fba5a;
      }

      .cls-35 {
        fill: #6a8f44;
      }

      .cls-36 {
        fill: #688f42;
      }

      .cls-37 {
        fill: #cfd1d0;
      }

      .cls-38 {
        fill: #698f42;
      }

      .cls-39 {
        fill: #2f2e2c;
      }

      .cls-40 {
        fill: #698e43;
      }

      .cls-41 {
        fill: #2e2d2b;
      }

      .cls-42 {
        fill: #050301;
      }

      .cls-43 {
        fill: #000100;
      }

      .cls-44 {
        fill: #2e2e2b;
      }

      .cls-45 {
        fill: #f4eee2;
      }

      .cls-46 {
        fill: #688d43;
      }

      .cls-47 {
        fill: #d1d4d4;
      }

      .cls-48 {
        fill: #8f9899;
      }

      .cls-49 {
        fill: #cfd2d1;
      }

      .cls-50 {
        fill: #d0d2d2;
      }

      .cls-51 {
        fill: #f8c73f;
      }

      .cls-52 {
        fill: #d88754;
      }

      .cls-53 {
        fill: #8eba5a;
      }

      .cls-54 {
        fill: #3f3e3c;
      }

      .cls-55 {
        fill: #d1d3d2;
      }

      .cls-56 {
        fill: #688e43;
      }

      .cls-57 {
        fill: #2d2d2a;
      }
    </style>
  </defs>
  <path class="cls-19" d="M56.5,148.47c-1.87-4.05-2.29-9.61.63-13.27,2.72-3.4,7.31-3.97,11.16-2.24l3.57-2.67c.17-.24.2-1.65.11-1.93-.07-.22-1.77-.72-2.15-.89-8.62-3.9-8.76-14.22-4.22-21.4l-5.3-4.91c-1.06,4.76-4.6,8.55-8.78,10.86-2.12,1.17-4.17,2.39-3.12-1.32.83-2.92,2.78-5.4,4.77-7.61-1.07.22-2.16.45-3.25.55-3.54.33-8.73-.23-12-1.69-.73-.33-1.43-.89-.57-1.61.56-.46,2.27-1.24,3-1.57,1.89-.83,4.12-1.52,6.15-1.87,2.81-.48,5.66-.42,8.46.03-3.26-1.89-5.4-4.86-8.09-7.41-3.55-3.35-7.13-5.59-10.85-8.51-.28-.22-.73-.64-.81-.99-.36-1.59,2.39-4.57,3.66-5.41.72-.48,1.53-1.05,2.36-.47,3.48,3.76,7.13,7.37,11.18,10.54,2.11,1.65,4.54,2.94,6.29,4.98-2.54-5.39-6-10.34-9.69-15.01-1.21-1.53-3.08-2.48-1.25-4.44.87-.92,4-2.9,5.23-3.08.94-.13,1.27.27,1.72.98,1.28,2.05,2.33,4.51,3.6,6.64,1.63,2.72,3.49,5.54,5.64,7.84-2.15-5.25-5.24-10.05-8.5-14.67-.59-1.72,2.17-3.25,3.47-3.85s3.35-1.55,4.27-.02c1.16,1.94,1.83,4.68,2.99,6.69l2.19,4.1c.26-3.85,1.23-7.79,2.7-11.34.21-.51,1.59-3.08,1.59-3.26,0-.26-1.48-1.11-1.81-1.38-8.17-6.83.07-21.2,10.79-18.68,2.86.67,4.91,2.76,6.43,5.16,9.74-4.7,21.67-4.75,31.41,0,1.1-1.59,2.28-3.16,3.99-4.14,3.24-1.86,7.28-1.58,10.47.23,6.94,3.94,8.54,14.56.95,18.7,1.26,2.6,2.41,5.25,3.15,8.05,1.94,7.28,1.79,15.05-2.26,21.6-1.61,2.61-3.78,4.8-6.14,6.74,2.35,2.67,4.5,5.56,5.7,8.94,1.62,4.55,1.88,8.92.84,13.64-.2.9-1.12,3.14-1.14,3.7-.04.9.61,3,.68,4.14.07,1.04-.05,2.11,0,3.15l3.7,2.84c.33.09,1.36-.47,1.83-.6,6.03-1.64,11.14,2.51,11.49,8.57.14,2.47-.53,5.76-1.67,7.96l.08.44c-3.79,6.19-8.81,8.02-15.76,6.42-4.97-1.14-9.95-2.66-14.85-4.23-.47.41-.98.81-1.53,1.2-.66.47-1.94.94-2.38.04l-.14.14c3.72,2.27-.14,4.94-2.58,6.24s-3.5.74-4.38-1.87l-.18-.28c-1.39,1.46-5.64,4.49-7.33,2.32l-3.3-6.66-.24-.15c-3.26-.24-6.49-.71-9.7-1.4l-10.6,3.12c-6.58,2-14.02,3.9-19.33-1.66-1.02-1.07-2.32-2.65-2.41-4.09Z"/>
  <g>
    <g>
      <g>
        <path class="cls-28" d="M50.41,70.17c.42-.29,2.49-1.6,2.88-1.37.22.13,2.01,3.9,2.35,4.5,2.49,4.4,5.32,8.69,8.81,12.36.07.1.08.2.05.31-.1.41-2.28,1.7-2.75,2.03l-.29.07c-3.73-5.87-7.47-11.75-11.2-17.62l.14-.29Z"/>
        <path class="cls-24" d="M71.02,106.28l-.25.15c-5.33-4.6-10.66-9.2-15.99-13.8l.05-.32c.65-.8,1.26-1.64,2.01-2.35,4.71,5.35,10.32,9.77,16.05,13.97.08.19-1.61,2.05-1.87,2.35Z"/>
        <path class="cls-4" d="M54.01,91.61l-.26.14c-5.24-4.64-10.47-9.29-15.71-13.93l.06-.32c.41-.48,1.87-2.15,2.49-1.87,3.56,4.1,7.61,7.75,11.91,11.06.47.36,3.39,2.26,3.44,2.52-.5.88-1.25,1.64-1.93,2.4Z"/>
        <path class="cls-27" d="M69.64,85.25c.91-.53,1.82-1.06,2.76-1.52,2.44,6.54,5.88,12.68,9.96,18.33-.85.57-1.73,1.09-2.63,1.59l-.29.05c-3.32-6.05-6.65-12.11-9.97-18.17l.16-.28Z"/>
        <path class="cls-18" d="M58.99,65.88c.91-.49,1.86-.95,2.9-1.1,2.5,6.37,5.61,12.52,9.82,17.93.05.18-.1.22-.21.3-.73.52-1.74.97-2.54,1.4l-.29.05c-3.28-6.1-6.56-12.2-9.84-18.3l.16-.28Z"/>
        <path class="cls-9" d="M58.16,99.5c-.24.35-.77.54-1.15.71-5.38,2.48-11.64,2.45-17.25.8.29-.37.9-.6,1.33-.81,5.29-2.49,11.59-2.79,17.07-.71Z"/>
        <path class="cls-53" d="M62.72,88.71c.34-.25,2.41-1.96,2.63-1.8,1.7,3.57,3.72,7.03,5.98,10.28,1.55,2.23,3.75,4.45,4.54,7.08.05.18-.03.28-.2.2-.38-.16-1.05-1.22-1.39-1.52-1.15-1.05-3.1-1.82-4.08-3.04l-.92-.87c-2.03-3.28-4.16-6.54-6.4-9.77l-.16-.56Z"/>
        <path class="cls-46" d="M58.99,65.88l9.96,18.54c-.36.19-1.32.87-1.62.95-.17.04-.28.03-.38-.12-2.16-5.19-4.79-10.13-7.84-14.85-.31-.48-2.05-2.77-2.05-3.07,0-.43,1.53-1.23,1.94-1.45Z"/>
        <path class="cls-26" d="M54.01,91.61c-.27.3-1.14,1.66-1.52,1.46-3.95-4.1-8.07-8.03-12.69-11.4-.96-.7-2.03-1.48-3.09-1.96.23-.87.83-1.55,1.38-2.21l15.91,14.11Z"/>
        <path class="cls-36" d="M69.64,85.25l10.1,18.4c-.68.38-1.35.79-2.07,1.11-2.58-6.43-5.78-12.67-9.95-18.21-.06-.35,1.59-1.1,1.93-1.29Z"/>
        <path class="cls-38" d="M71.02,106.28c-.48.55-.86,1.2-1.45,1.66-4.9-5.09-10.1-10.06-16.12-13.83-.14-.2,1.19-1.55,1.38-1.8l16.19,13.97Z"/>
        <path class="cls-56" d="M61.75,88.02c-.19.13-1.37,1.22-1.52,1.11-3.1-6.25-7.13-12.08-11.63-17.36,0-.32,1.45-1.35,1.8-1.59l11.34,17.85Z"/>
        <path class="cls-30" d="M58.71,101.02c-1.1,4.48-4.6,8.07-8.72,9.96,1.03-3.26,3.24-6.04,5.89-8.16.31-.25,2.62-1.98,2.83-1.8Z"/>
        <path class="cls-32" d="M70.19,99.92c-.77-.47-1.59-1.08-2.28-1.66-1.97-1.68-3.05-3.6-4.64-5.59-.74-.92-1.47-1.83-2.34-2.63,0-.15,1.54-1.12,1.8-1.31,1.33,2,2.79,3.91,4.12,5.91,1.09,1.63,2.16,3.82,3.35,5.3Z"/>
        <path class="cls-34" d="M80.29,104.62c.43-.24,2.16-1.46,2.44-1.51.16-.03.16.03.25.13l2.7,5.74c.04.28-.01.18-.2.2-.7.09-1.56-.07-2.29,0l-.37-.06-2.68-4.22.15-.29Z"/>
        <path class="cls-16" d="M71.85,106.97c.61-.75,1.15-1.55,1.87-2.21l5.19,5.32c-.68.35-1.47.39-2.21.48l-.66-.14c-.28-.12-4-2.87-4.15-3.08-.08-.12-.11-.2-.04-.37Z"/>
        <path class="cls-5" d="M83.2,109.18l-2.21.35-2.77-3.88c.67-.37,1.41-.66,2.07-1.04l2.91,4.57Z"/>
        <path class="cls-6" d="M76.7,110.57c-.78.09-2.63.32-3.36.11-.16-.05-2.61-1.72-2.72-1.84-.04-.05-.12-.07-.14-.14-.06-.28,1.15-1.43,1.38-1.72l4.84,3.6Z"/>
      </g>
      <g>
        <path class="cls-23" d="M135.08,113.33c-.07,1.62-.24,3.23-.9,4.73l-.34.11c.04.1.07.21.07.31.05.73-1.22,2.79-1.78,3.4-1.54,2.89-3.58,5.4-6.13,7.52l-.33-.02c-.05.12-.1.24-.19.32-.25.24-.51.44-.8.63-2.68,1.84-5.85,3.67-8.93,4.63-3.4,1.06-7.46,1.65-10.84.21-.93-.4-2.13-.95-2.49-1.92-.35-5.54,6.81-7.62,10.56-10.26,2.85-2.02,5.91-5.42,7.22-8.69.29-.73,1.17-2.66-.03-2.88-1.05-.19-1.11,1.22-1.42,1.92-1.8-.45-3.66-.96-5.57-1.54l-.24-.26c4.52-3.8,9.23-7.2,13.35-11.48.55-.57,1.17-1.47,1.73-2.01.1-.09.15-.24.33-.2,4.13,4.04,6.65,9.67,6.73,15.48Z"/>
        <path class="cls-10" d="M112.94,111.54c1.79.5,3.64.83,5.4,1.46.22.08.49-.03.41.34-3.38,7.57-8.01,8.4-14.07,12.7-.8.57-1.51,1.24-2.3,1.82-1.37-1.3-2.87-2.49-4.24-3.79-1.78-1.69-2.89-2.85-4.23-4.9-.2-.3-.95-1.04-1-1.22-.12-.42.02-1.03-.03-1.49-.18-1.57-.57-2.95-1.52-4.22l.28-.32c.96-.3,2.57-.65,3.46-.23.13.12.22.26.41.34-2.16,5.17,1.14,11.17,6.62,12.21,5.99,1.14,11.29-3.64,10.82-9.71-.05-.63-.59-2.15-.55-2.49.05-.46.42-.37.56-.49Z"/>
        <path class="cls-10" d="M94.27,145.29c.08.09.14.26.06.33-.44.36-4.01-.74-4.75-1.01l-.42-.42c-.24-1.12-.56-1.99-.97-3.04-1.85-4.75-4.98-8.48-9.96-10.1l.12-.3c2.07-.2,4.1-.64,6.08-1.32l.44.1c.9,1.43,1.82,2.86,2.65,4.33,1.33,2.38,2.57,5.6,4.01,7.75.8,1.2,1.87,2.46,2.74,3.69Z"/>
        <path class="cls-44" d="M125.67,129.38c.48.06.2.56-.06.83-1.87,1.23-3.78,2.44-5.78,3.49-.2.39-.5,1.17-.31,1.55.74.5.36.9-.22,1.32-2.14.94-4.22,1.76-6.59,2.06-4.14.52-9.96-.21-10.29-5.38,4.35,4.04,11.37,2.45,16.28.3,2.5-1.09,4.73-2.64,6.96-4.17Z"/>
        <path class="cls-57" d="M113.08,103.24l-4.66,4.26c-2.06-1.04-4.28-1.37-6.55-.87-.52.11-2.24.9-2.42.9-.47-.01-4.24-3.72-4.91-4.28,6.15.93,12.39.94,18.54,0Z"/>
        <path class="cls-52" d="M124.01,99.92c-3.72,3.9-8.08,7.14-12.32,10.45-.16.11-.22.02-.34-.06s-1.45-1.63-1.45-1.74l.13-.29,6.32-5.71c2.61-.72,5.17-1.58,7.66-2.65Z"/>
        <path class="cls-20" d="M96.46,110.41c-.28.16-1.08-.56-1.35-.76-1.86-1.35-3.84-3-5.61-4.49-1.93-1.62-3.87-3.29-5.61-5.11,2.46,1.02,5.03,1.8,7.54,2.63l6.37,5.81c.16.3-.54.77-.76,1.04-.15.17-.53.85-.58.88Z"/>
        <path class="cls-31" d="M95.1,111.67c-1.27-.04-2.49.37-3.74.55-.36-.48-1.06-1.21-1.53-1.58-.54-.43-1.87-.94-2.13-1.19-.21-.2-1.22-2.27-1.44-2.71-.56-1.14-1.04-2.34-1.54-3.51,1.48,1.2,2.89,2.52,4.36,3.73,1.9,1.57,4.23,3.1,6.01,4.71Z"/>
        <path class="cls-50" d="M84.86,129.52c-1.04.52-2.2.75-3.32,1.04l-3.32.48c-1.47-.48-2.9-.63-4.43-.83.06-.53-.04-1.12,0-1.66,2.46.3,4.89.19,7.31-.37.46-.11,2.11-.74,2.31-.73.46,0,1.19,1.67,1.45,2.07Z"/>
        <path class="cls-37" d="M119.72,140.87c.18.45-.61,3-.79,3.04l-.31-.14c-1.31-1.15-2.48-2.46-3.73-3.67,1.04-.43,2.15-.68,3.21-1.07.93-.34,1.98-.77,2.87-1.21.31.09-.04.39-.11.51-.47.87-.79,1.62-1.14,2.53Z"/>
        <path class="cls-49" d="M133.97,130.35c-1.16.19-2.93.18-4.01.55,1.32-1.77,2.77-3.42,3.81-5.39.13.93.32,2.04.35,2.97.02.6-.21,1.43-.14,1.87Z"/>
        <path class="cls-13" d="M134.25,119.56c-.27-.44.03-1.07-.42-1.38.24-.61,1.01-2.6,1.1-3.12s-.17-1.23.15-1.72c.03,2.17-.26,4.15-.83,6.23Z"/>
        <g>
          <path class="cls-55" d="M94.27,145.29c.32.45,3.59,4.87,3.32,5.12-2.73.02-5.39-.97-8.02-1.38.09-1.67-.06-3.21-.42-4.84,1.42.45,2.95.93,4.42,1.18.21.04.56.18.7-.08Z"/>
          <g>
            <path class="cls-17" d="M150.85,143.63c-.58,4.84-4.29,9.91-9.35,10.64-2.84.41-7.3-.83-10.15-1.57-3.21-.84-6.34-2-9.54-2.84.4-.43.63-1.43.97-1.8.02-.18.11-.35.27-.51-.66-.78-.65-1.35.53-1.3.36-.3.21-.57-.42-.82-.06.55-.47,1.43-1.06.96-.34-.31-1.07-.73-1.52-1.11-.5-1.32.89-.63,1.41-.02l.25-1.08c4.96,3.48,11.1,4.53,17.02,5.26l.37.05c1.66,2.19,4.98,1.21,6.06-1.05l.35-.1c2.06-1.04,3.47-2.92,4.84-4.7Z"/>
            <path class="cls-41" d="M122.21,144.19c.08.13.24.39.25.51,0,.06-.22.85-.32.87-.59.16-1.41-1.63-1.58-.27-.62-.52-1.36-1.01-1.94-1.52.29-.08.25-.36.32-.58.25-.8.49-1.54.79-2.33.36,1.37,1.87,2.3,2.49,3.32Z"/>
            <path class="cls-41" d="M122.07,146.4c.85-.12.77-1.19.83-1.25.26-.28,1.24.65,1.24.76,0,.04-.4.57-.44.59-.19.11-1.13-.14-.87.45.12.28.8.41.27.97-.12.13-.32.12-.34.14.02-.57-.27-1.28-.69-1.66Z"/>
            <path class="cls-45" d="M146.01,148.34c-1.11,2.72-5.04,3.8-6.78,1.11-2.08-3.21.8-8.06,4.7-6.71,2.23.77,2.91,3.56,2.08,5.6Z"/>
            <g>
              <path class="cls-33" d="M133.97,130.35c.17,1.12,3.14,2.87,4.01,3.67-.96.87-3.19,3.32-3.32,4.58-.08.78.6,1.33,1.32.89.24-.15,1.34-2.25,1.79-2.78,3.54-4.23,10.21-3.98,12.5,1.34.86,2,.83,3.48.57,5.58-.2,1.2-3.64,4.86-4.57,4.77-.09,0-.18-.04-.27-.07l-.17-.32c1.55-8.18-9.44-5.86-6.49,1.08l-.11.35c-.11.06-.23.11-.35.14s-.23.06-.33.05c-5.21-.6-10.92-1.64-15.3-4.62-.43-.01-.78-.29-1.03-.83h-.33c-.8-.77-2.31-2.23-2.16-3.32l-.13-.44c.35-.97.83-1.96,1.37-2.61,2.03-1,4.39-2.58,6.09-4.08.55-.49,2.49-2.69,2.9-2.84.86-.67,2.62-.78,3.73-.79l.28.24Z"/>
              <path class="cls-45" d="M145.14,137.15c2.1-.43,2.05,3.22.1,3.31s-1.59-3-.1-3.31Z"/>
              <path class="cls-45" d="M140.57,137.43c1.97-.44,2.33,3.14.37,3.29-1.72.13-1.9-2.95-.37-3.29Z"/>
              <path class="cls-21" d="M149,142.89c-1.04,1.02-2.63-.12-1.73-1.66,1.05-1.79,3.2.21,1.73,1.66Z"/>
            </g>
          </g>
        </g>
        <g>
          <path class="cls-41" d="M134.25,119.56c-.24.88-.49,1.78-.83,2.63l-.25.24c-.95-1.21-1.35,1.26-.9,1.78l-.09.47c-.34.61-.73,1.09-1.11,1.66-.16.2-.37.16-.62-.12.14.5.13.89-.21,1.37-3.06,4.19-6.16,6.88-10.93,8.99.68-1.17.26-.72-.07-1.24-.18-.29.16-1.46.34-1.74.21-.34,1.96-1.06,2.41-1.33s1.05-.87,1.51-1.11c.74-.4,1.43-.49,2.05-1.28.16-.2.1-.44.13-.49.56-.85,2.18-2.02,2.98-2.9,2.07-2.3,4.05-5.43,5.19-8.3.45-.06.59.4.42,1.38Z"/>
          <path class="cls-13" d="M133.42,122.19c-.34.85-.79,1.69-1.25,2.49-.1-.46-.45-.48-.43-1.03,0-.11.44-1.66.5-1.73.31-.43.78.31,1.17.28Z"/>
          <path class="cls-13" d="M130.23,127.58c.51-.66-.63-1.53.27-1.66l.56.41c-.29.43-.52.82-.83,1.25Z"/>
          <path class="cls-13" d="M130.93,124.82c.25.26-.64,1.07-.97.97-.22-.45.72-1.22.97-.97Z"/>
          <path class="cls-44" d="M122.49,134.36v.41s-.41,0-.41,0c.14-.27.08-.5.41-.41Z"/>
        </g>
        <g>
          <g>
            <path class="cls-2" d="M94.68,140.17c.52-.35,1.62-1.23,2.08-1.45.14-.06.25-.11.41-.07.28.77.76,1.51,1.19,2.2,3.08,4.95,6.01,10,9.67,14.55.21.39-.29.71-.56.96-.66.6-1.49,1-2.28,1.39-.16.08-.33.1-.5.08-2.83-5.92-6.12-11.62-9.86-17.08l-.15-.56Z"/>
            <path class="cls-2" d="M113.63,157.19l-.49-.46c-3.22-5.34-6.71-10.6-10.35-15.56-.31-.37-.34-.66-.08-.86.29-.2,1.27-1.04,1.48-1.08.11-.02,1.38.54,1.49.67.59.64,1.77,3.06,2.37,3.99,2.49,3.9,5.1,7.6,8.16,11.09.1.31-.7,1.01-.98,1.23-.48.4-1.05.67-1.59.97Z"/>
            <path class="cls-4" d="M102.15,139.34l-.28.08s-3.78-5.41-11.33-16.24l.13-.3c.8-.63,1.63-1.24,2.49-1.8,1.41,3.07,3.24,5.97,5.15,8.76.47.69,2.03,2.43,2.25,3,.17.44.13,1.38.27,1.94.35,1.4,1.4,2.69,2.42,3.67.06.28-.89.73-1.1.89Z"/>
            <path class="cls-1" d="M102.15,139.34c-.33.25-1.71,1.44-1.99,1.37-3.18-5.81-6.94-11.36-11.29-16.39.6-.49,1.19-.98,1.8-1.45l11.48,16.46Z"/>
            <path class="cls-38" d="M113.63,157.19c-.34.19-1.43,1.04-1.81.77-.14-.1-1.24-2.63-1.49-3.08-1.69-3.08-3.83-6.19-5.98-8.96-.46-.59-3.41-3.91-3.43-4.18s1.46-1.21,1.78-1.43c.1.48.45.89.72,1.29,1.68,2.46,3.52,4.81,5.15,7.3,1.77,2.7,3.4,5.52,5.06,8.29Z"/>
            <path class="cls-15" d="M94.13,139.2l-.29.06c-2.49-4.3-4.98-8.61-7.48-12.91l.16-.28c.17-.1.8-.67.9-.67,3.48,3.69,6.54,7.79,9.03,12.22-.02.28-1.97,1.36-2.32,1.59Z"/>
            <path class="cls-12" d="M119.03,150.41l-.27.12-9.22-9.57-.07-.39c.93-.06,1.86-.1,2.78-.13.3-.02.65-.06.91.13,2.43,2.57,5.05,4.95,7.88,7.06.2.32-.21.74-.38,1.01-.44.69-1.02,1.23-1.63,1.76Z"/>
            <path class="cls-35" d="M94.68,140.17c3.67,5.53,7.42,11.1,10.14,17.19.09.21.02.45.38.38-.3.14-1.36.82-1.59.56-.57-.66-1.43-3.05-1.94-4.02-1.77-3.37-3.84-6.64-5.99-9.78-.3-.43-2.5-3.3-2.37-3.48.52-.18.93-.54,1.37-.84Z"/>
            <path class="cls-35" d="M86.52,126.06l7.61,13.14c-.22.15-1.47,1.25-1.66,1.11-2.04-4.7-4.8-9.05-7.33-13.47.06-.24,1.12-.63,1.38-.77Z"/>
            <path class="cls-40" d="M112.25,140.45s-.15.14-.33.14c-.76.02-1.54-.08-2.29.06l9.41,9.75c-.33.29-1.07,1.11-1.52.9-.47-.22-2.1-2.49-2.63-3.05-1.75-1.88-4.45-3.92-5.93-5.83-.47-.61-.87-1.45-1.27-2.12l4.57.14Z"/>
            <path class="cls-3" d="M101.04,130.77c-.21.16-2.89-3.96-3.1-4.3-.18-.29-.43-.63-.49-.96l4.09,3.6-.5,1.66Z"/>
            <path class="cls-11" d="M114.46,150.13c-.25.05-.34-.13-.49-.27-.24-.23-.66-.78-.76-1.11.25.05,1.31,1.32,1.24,1.38Z"/>
            <path class="cls-48" d="M116.54,152.9c-.33-.41-.76-.74-.97-1.24l1.11,1.11-.14.14Z"/>
            <path class="cls-8" d="M92.05,120.53s.24-.55.41-.55c.12.27-.21.71-.41.55Z"/>
          </g>
          <g>
            <g>
              <path class="cls-33" d="M64.38,116.65c-.16-3.39.87-6.3,2.35-9.27.21-.06.23.06.35.14.59.41,1.36,1.64,2.08,2.21.28.23,1.38.78,1.43.85.1.17-.06.63.09.95.42.91,4.6.9,5.53.83,4.69-.35,10.99-4.16,14.04,1.52.28,1.97-1.12,4.24-2.44,5.66-.89.96-2.57,2.14-3.75,2.7-.46.22-1.21.47-1.72.64-3.22,1.04-6.8,1.78-10.08.55-.63.23-1.69-.25-2.32-.56-2.56-1.26-5.05-3.27-5.56-6.22Z"/>
              <path class="cls-41" d="M72.27,123.43c1.94.77,3.74.81,5.78.53.66.22,1.07.14,1.21-.24,1.81-.42,3.54-.99,5.19-1.71.83-.63,2.85-2.07,2.8-.09.36-.31.79-.51,1.3-.62.3-.38.86-.49,1,.06-6.44,8.07-24.55,8.43-25.18-4.7,1.11,2.86,3.12,4.83,5.9,6.07.64.29,1.33.44,1.99.71Z"/>
              <path class="cls-44" d="M89.56,121.36c-.82-.24-.58.06-.86.18-.31.14-.62.19-.92.31-.16.06-.26.34-.49.34-.61,0-.08-.74-.34-.91-.43-.15-1.11-.07-1.46.21-.42.33-1.15,1.02-1.72,1.2-.26.08-.48-.08-.7-.03s-.43.35-.68.43c-.71.21-2.19.36-2.76.7-.23.13-.45.73-.63.73-.04,0-.26-.23-.55-.26-1.17-.1-2.56.3-3.6.14-.86-.13-1.83-.66-2.57-.96,3.17.66,6.5.38,9.57-.59,4.32-1.36,7.68-4.32,8.41-8.95,1.37,2.55,1.15,5.17-.69,7.47Z"/>
            </g>
            <g>
              <path class="cls-39" d="M88.18,141.14c.71.55,1.26,2.19.97,3.04.62.66.97,3.9.61,4.57-.05.1-.12.19-.2.27-.14-.02-.33-.22-.55-.08-5.95,1.63-11.92,3.83-17.98,5-3.63.7-6.35.6-9.34-1.73-2.61-2.04-4.33-5.3-4.78-8.57,1.33,1.7,2.6,3.56,4.46,4.74.21.13.38.28.66.24l.36.09c1.24,2.15,4.31,2.81,5.9.67l.38-.06c3.15-.23,6.51-.84,9.55-1.73,4.06-1.19,7.21-2.62,9.52-6.25.14-.22.16-.42.44-.18Z"/>
              <path class="cls-45" d="M68.67,149.3c-1.71,2.66-5.33,1.9-6.64-.69-.94-1.86-.57-4.53,1.29-5.7,3.64-2.29,7.61,2.89,5.35,6.39Z"/>
              <g>
                <path class="cls-54" d="M78.22,131.04c2.97.33,5.77,2.74,7.53,5.08.63.83,2.57,3.84,2.5,4.7,0,.11-.04.22-.07.32-3.5,6.01-12.19,7.84-18.69,8.37-.13.01-.27-.02-.41-.06s-.28-.09-.41-.15l-.12-.34c2.75-7.18-8.49-9.19-6.38-.7l-.14.35c-.05.11-.12.24-.24.27-.75.19-4.79-4.07-4.88-5.25-.36-2.63-.07-5.28,1.66-7.4,2.78-3.39,8.06-3.14,11-.08.59.62,1.77,3.02,2.06,3.2.54.33,1.46.11,1.45-.63,0-.53-1.26-2.55-1.65-3.04-.47-.58-1.16-1.09-1.65-1.66.91-.77,2.04-1.41,2.9-2.21.52-.48,1.03-.86,1.1-1.59l.49-.22c1.2.15,2.4.32,3.57.65l.36.4Z"/>
                <path class="cls-14" d="M62.14,137.02c1.5-.25,2.37,2.36,1.19,3.14-1.99,1.31-3.3-2.79-1.19-3.14Z"/>
                <path class="cls-45" d="M66.56,137.44c1.66-.38,2.38,2.21,1,3.08-1.88,1.19-2.87-2.65-1-3.08Z"/>
                <path class="cls-25" d="M59.09,140.47c1.53-.32,2.33,2.26,1.01,2.68-1.79.57-2.42-2.39-1.01-2.68Z"/>
              </g>
            </g>
          </g>
        </g>
        <g>
          <circle class="cls-22" cx="103.9" cy="115.37" r="7.28"/>
          <g>
            <circle class="cls-42" cx="103.9" cy="115.37" r="5.7"/>
            <circle class="cls-51" cx="103.89" cy="115.37" r="4.92"/>
          </g>
        </g>
      </g>
    </g>
    <g>
      <path class="cls-47" d="M137.43,75.84c.23.36.17,1.04.14,1.46-1.31,23.57-29.77,28.49-48.29,22.82-2.2-.67-7.87-2.93-9.36-4.54-.92-1-2.41-4.4-3.09-5.76,4.51,4.27,10.25,6.83,16.3,8.12,11.08,2.36,25.6,1.06,34.93-5.79,5.02-3.68,9.38-9.86,9.36-16.3Z"/>
      <path class="cls-23" d="M73.77,58.53c-1.31-.32-2.85-1.86-3.46-3.07-3.93-7.7,5.63-17.32,13.21-12.52.57.36,3.18,2.85,2.8,3.44-.1.15-2.52,1.56-2.97,1.88-3.81,2.74-7.17,6.24-9.58,10.27Z"/>
      <path class="cls-54" d="M127.72,41.71c8.92-.84,14.82,12.18,6.32,16.97-3.24-5.07-7.54-9.4-12.78-12.39,1.09-2.57,3.7-4.32,6.46-4.58Z"/>
      <g>
        <path class="cls-10" d="M137.43,75.84c.38,5.33-2.57,10.29-6.23,13.97-10.62,10.67-32.16,11.84-45.51,6.08-3.2-1.38-6.7-3.31-8.86-6.07-1.17-2.34-2.2-5.28-3.44-7.42-.61-1.06-3.05-3.8-3.2-4.69-.57-3.42,1.1-9.82,2.42-13.06,9.38-23.03,39.54-28.46,56.24-9.9,4.84,5.38,8.55,13.79,8.57,21.1Z"/>
        <path class="cls-29" d="M110.49,85.85c.85-.74,1.89.11,1.18,1.38-1.48,2.65-5.88,2.95-7.81.66-.5.28-.81.7-1.34.98-2.04,1.1-4.95.56-6.38-1.28-.39-.5-.91-1.24-.3-1.79.95-.85,1.65.89,2.38,1.37,1.35.88,3.48.79,4.4-.67.47-.75.04-1.91.29-2.77-1.5-.47-3.87-1.68-3.83-3.52.07-3.01,5.71-2.83,7.66-2.11,2.77,1.03,1.95,3.5-.13,4.78-.36.22-1.86.76-1.92.85-.23.35-.09,2.26.21,2.7,1.02,1.47,3.14,1.73,4.56.68.49-.36.68-.97,1.02-1.26Z"/>
        <g>
          <path class="cls-23" d="M115.27,64.13c9.29-.87,17.31,15.08,7.91,18.84-6.16,2.46-11.29-2.88-13.21-8.23-1.65-4.6-.22-10.09,5.3-10.61Z"/>
          <g>
            <path class="cls-43" d="M115.26,69.65c5.64-.96,5.78,9.27-.11,8.07-3.82-.78-3.52-7.45.11-8.07Z"/>
            <path class="cls-7" d="M114.7,71.31c1.71-.51,2.06,2,.63,2.3-1.51.31-1.66-1.99-.63-2.3Z"/>
          </g>
        </g>
        <g>
          <path class="cls-23" d="M90.92,64.13c3.59-.35,6.96,2.04,7.34,5.72.73,7.03-7,17.06-14.65,12.71-8.01-4.55-.52-17.66,7.31-18.43Z"/>
          <g>
            <path class="cls-43" d="M91.19,69.65c3.39-.47,5.12,3.88,3.33,6.51-1.21,1.79-3.47,2.24-5.16.78-2.39-2.07-1.4-6.85,1.83-7.29Z"/>
            <circle class="cls-7" cx="92.49" cy="72.43" r="1.16"/>
          </g>
        </g>
      </g>
    </g>
  </g>
</svg>