<?xml version="1.0" encoding="UTF-8"?>
<svg id="_레이어_1" data-name="레이어 1" xmlns="http://www.w3.org/2000/svg" viewBox="0 0 200 200">
  <defs>
    <style>
      .cls-1 {
        fill: #dbb456;
      }

      .cls-2 {
        fill: #3b3a38;
      }

      .cls-3 {
        fill: #f2c23d;
      }

      .cls-4 {
        fill: #fbdf87;
      }

      .cls-5 {
        fill: #2c2b28;
      }

      .cls-6 {
        fill: #bcfad0;
      }

      .cls-7 {
        fill: #e8c362;
      }

      .cls-8 {
        fill: #010101;
      }

      .cls-9 {
        fill: #f7d980;
      }

      .cls-10 {
        fill: #2a2a2a;
      }

      .cls-11 {
        fill: #e8c467;
      }

      .cls-12 {
        fill: #3c3b39;
      }

      .cls-13 {
        fill: #fcfdfc;
      }

      .cls-14 {
        fill: #624920;
      }

      .cls-15 {
        fill: #c1f8d0;
      }

      .cls-16 {
        fill: #8def8d;
      }

      .cls-17 {
        fill: #3a3a38;
      }

      .cls-18 {
        fill: #595524;
      }

      .cls-19 {
        fill: #2b2928;
      }

      .cls-20 {
        fill: #d69d39;
      }

      .cls-21 {
        fill: #f7d882;
      }

      .cls-22 {
        fill: #fff;
      }

      .cls-23 {
        fill: #edb83a;
      }

      .cls-24 {
        fill: #010202;
      }

      .cls-25 {
        fill: #3eaf61;
      }

      .cls-26 {
        fill: #e0fce6;
      }

      .cls-27 {
        fill: #cfa245;
      }

      .cls-28 {
        fill: #2a292a;
      }

      .cls-29 {
        fill: #e8c361;
      }

      .cls-30 {
        fill: #2b292a;
      }

      .cls-31 {
        fill: #f7d881;
      }

      .cls-32 {
        fill: #010201;
      }

      .cls-33 {
        fill: #c99e42;
      }

      .cls-34 {
        fill: #e8c466;
      }

      .cls-35 {
        fill: #e0fde7;
      }

      .cls-36 {
        fill: #ca9d42;
      }

      .cls-37 {
        fill: #4ac66c;
      }

      .cls-38 {
        fill: #daa03b;
      }

      .cls-39 {
        fill: #a5f3b9;
      }

      .cls-40 {
        fill: #c89b3f;
      }

      .cls-41 {
        fill: #42ee7c;
      }

      .cls-42 {
        fill: #d8a03b;
      }

      .cls-43 {
        fill: #f1c13f;
      }

      .cls-44 {
        fill: #eebe41;
      }

      .cls-45 {
        fill: #c79a3f;
      }

      .cls-46 {
        fill: #d89d3a;
      }

      .cls-47 {
        fill: #3b3b39;
      }

      .cls-48 {
        fill: #3a3937;
      }

      .cls-49 {
        fill: #c99b43;
      }

      .cls-50 {
        fill: #d99f3a;
      }

      .cls-51 {
        fill: #88ed8a;
      }

      .cls-52 {
        fill: #44d06e;
      }

      .cls-53 {
        fill: #ceced0;
      }

      .cls-54 {
        fill: #cececf;
      }

      .cls-55 {
        fill: #292929;
      }

      .cls-56 {
        fill: #f1c245;
      }

      .cls-57 {
        fill: #e1fde7;
      }

      .cls-58 {
        fill: #35a953;
      }

      .cls-59 {
        fill: #f8dc8a;
      }

      .cls-60 {
        fill: #feffff;
      }

      .cls-61 {
        fill: #daa039;
      }

      .cls-62 {
        fill: #030504;
      }

      .cls-63 {
        fill: #60491e;
      }
    </style>
  </defs>
  <g>
    <g>
      <path class="cls-2" d="M109.94,163.35c-5.31.74-9.15-.55-9.73-6.42-.84-4.64,1.78-6.76,5.21-9.15.86-.74,2.76-2.48,2.45-3.65l.33-.51c3.74-2.06,7.16-4.97,8.81-9l.47-.4c-.79,7.88-2.92,15.39-6.21,22.57.31,1.2,1.46,1.53,1.94,2.77,1.1,2.85-1.1,3.3-3.28,3.8Z"/>
      <g>
        <path class="cls-60" d="M116.6,118.39c.48,2.37.95,5.14,1.04,7.54.96,9.07-7.49,14.46-15.16,16.76s-15.75,2.11-23.35-.69c-6.66-2.45-14.05-7.5-13.25-15.48.05-2.57.52-5.47,1.04-7.99.09-.15.18-.29.3-.43,1.06-1.25,5.52-3.09,7.27-3.76,10.87-4.2,23.63-4.18,34.53-.06,1.74.66,6.23,2.46,7.3,3.68.11.13.21.27.3.42Z"/>
        <path class="cls-54" d="M117.49,134.22c-1.6,4.48-5.51,7.75-9.61,9.91.04.5-1.09,1.1-1.48.74-5.69,1.65-10.66,3.32-16.78,2.96-4.27-.25-8.47-1.84-12.5-2.96-.23.45-1.55-.27-1.48-.74-4.06-2.24-7.93-5.46-9.61-9.91-.23-2.33-.32-4.53-.3-6.88,0-.25-.09-.66.15-.81-.24,11.72,14.8,17.05,24.47,17.46,10.76.46,27.74-4.87,27.29-18.05.25.15.15.56.15.81.03,2.59-.04,4.91-.3,7.47Z"/>
      </g>
      <path class="cls-55" d="M107.87,144.13c.29-.08.4.19.42.41.03.51-1.2,2.03-1.6,2.47-1.48,1.64-4.79,3.45-5.64,5.15-1,2-.68,6.04.3,8.04,1.52,3.1,5.58,3.24,8.61,3.15-3.02.69-5.9.62-8.91-.19-1.83-.49-3.67-1.18-3.92-3.33l-1.52-10.53c2.33-.21,4.78-.85,6.95-1.7.57-.22,3.77-1.68,3.93-1.99.13-.26.07-.51-.08-.74.39-.11,1.08-.53,1.48-.74Z"/>
      <g>
        <path class="cls-12" d="M75.63,144.13c.31,1.56,1.44,2.73,2.68,3.78,3.71,2.47,5.62,4.4,5.13,9.04-.6,5.78-4.66,7.26-9.88,6.4-.92-.22-3.13-.68-3.37-1.73-.26-1.16.25-2.38.94-3.28.32-.42,1.27-1.05,1.22-1.53-3.34-7.1-5.55-14.76-6.34-22.59l.48.4c1.71,3.97,5.13,6.87,8.8,8.98l.33.53Z"/>
        <path class="cls-10" d="M77.11,144.87c-.03.31-.03.55.14.82.26.42,2.53,1.37,3.12,1.61,2.45,1.02,5.03,1.79,7.69,2-.91,3.31-.86,6.9-1.52,10.23-.49,2.45-1.49,2.95-3.8,3.59-2.98.83-6.17.93-9.17.22,4.23.21,8.31-.28,9.37-5.05.52-2.36.46-5.67-1.38-7.45-1.48-1.43-3.39-2.38-4.81-4.06-.52-.61-1.6-1.84-1.11-2.66.35.19,1.15.65,1.48.74Z"/>
      </g>
    </g>
    <g>
      <path class="cls-47" d="M117.04,100.79c5.45.84,11.28,2.37,16.77,1.61.72-.1,1.44-.35,2.16-.42-.03.23.02.5,0,.74-2.16,1.93-3.09,5.79-2.66,8.58-.13,1.5-2.4,2.29-3.71,2.61-4.71,1.18-9.98,0-13.45-3.35-.54-1.15-1.71-1.02-1.63.22.06,1.02,1.13,3.69,1.44,4.93.22.89.45,1.8.63,2.69-14.48-9.17-35.31-9.25-49.69.15.33-1.6.79-3.33,1.23-4.91.19-.7,1.02-2.62.99-3.14-.04-.74-.94-.91-1.41-.54-.11.09-.99,2.34-1.1,2.68-1.96,4.04-3.15,8.33-4.29,12.65-.99,3.37-2.6,8.24-6.76,8.4-1.41.05-3.22-.56-3.74-1.98-1.69-9.6,8.07-24.58,15.53-30.17h.53c13.28,10.51,35.8,10.51,48.57-.78l.6.04Z"/>
      <path class="cls-30" d="M117.04,100.79c-.34-.05-.45.11-.67.29-1,.84-1.9,1.74-2.98,2.49-11.46,7.99-31.78,7.88-43.28,0-.95-.65-1.79-1.45-2.76-2.04.32-.24.69-.78,1.08-.72,3.98,2.46,8.36,4.03,12.95,4.96,10.59,2.16,22.3,1.13,31.93-3.92.69-.36,1.94-1.37,2.61-1.35.37.01.83.24,1.13.28Z"/>
      <path class="cls-5" d="M51.82,131.7c2.15,2.38,5.34,2.19,7.39-.23,2.48-2.92,3.53-9.66,4.88-13.46.64-1.8,1.41-3.85,2.52-5.4-1.5,4.66-2.36,9.98-2.66,14.87-.13,2.21.4,3.07-.77,5.15-.99,1.75-2.79,4.03-4.93,4.24-3.28.33-5.88-2.05-6.43-5.17Z"/>
      <path class="cls-28" d="M133.31,111.29c.14.94.8,2.61,1.33,3.4-.18.67-.32,1.39-.44,2.07l-.22-.59c-3.94.75-8.11,1.27-12.13,1.03-.77-.04-3.12-.27-3.74-.54-.26-.11-.83-2.77-.99-3.3-.28-.91-.56-1.95-.96-2.81.86.15,1.49.94,2.23,1.39,2.89,1.77,5.99,2.36,9.36,1.99,1.92-.21,4.54-.9,5.57-2.64Z"/>
    </g>
  </g>
  <path class="cls-22" d="M94.86,156.55h-6.06c0-.29,0-.59,0-.89.02-2.02.63-4.24,1.04-6.21.99.21,2.02.15,3.03.15.52,0,.79-.4,1.03.29.71,2.01.65,4.56.96,6.66Z"/>
  <g>
    <path d="M69.13,158.03c.17-.29,1.28-1.26,1.29-1.4-3.37-6.95-5.28-14.58-6.09-22.26-.19-.25-.22-.07-.35.1-2.2,2.87-3.91,4.9-8.04,4-7.45-1.62-6.42-10.56-4.78-16.08,2.59-8.69,8.52-17.12,15.6-22.7-3.64-2.7-6.75-6.25-8.39-10.54-3.2-8.32-1.28-17.83,2.63-25.56,0-.26-1.39-1.12-1.7-1.4-1.6-1.43-2.84-3.68-3.03-5.84-.98-11.01,12.43-17.6,19.52-8.5l-1.92-11.42c-2.49-.96-2.71-4.48-.2-5.57,2.28-.99,4.4.89,4.04,3.3-.07.49-.52.92-.41,1.31.14.53,2.48,2.09,2.86,2.77.16,0,1.22-2.73,1.21-2.88-.02-.16-.47-.46-.61-.67-.4-.61-.46-1.11-.38-1.84.33-3.1,5.5-2.85,4.87,1.03-.05.32-.44.79-.36.97s2.01,2.46,2.14,2.37l3.24-5.42c-1.62-1.74-1.35-4.62,1.06-5.44,2.63-.89,5.02,2.02,3.64,4.38-.25.43-.81.68-.66,1.2l3.23,5.29c.13.09,1.99-2.11,2.05-2.32.07-.26-.42-1.1-.42-1.59,0-3.11,4.7-3.52,5.03-.44.14,1.31-.28,1.68-1.01,2.64l1.23,2.76c.46-.72,2.96-2.41,2.86-3.14-.03-.24-.3-.62-.36-.99-.49-3.05,3.39-4.85,5.26-2.3,1.35,1.85.31,3.74-1.45,4.76l-1.8,10.1c3.62-3.72,9.01-4.09,13.3-1.24.53.35,1.51,1.1,1.94,1.54.14-.03.3-.05.43.03.91.49,3.14,4.91,2.68,6.19l.35.35c.2.91.29,2.85-.35,3.49.06.06.12.13.16.2.35.61-1.87,4.66-2.57,4.7-.08,0-.17,0-.26-.02-.06.76-1.16,1.42-1.84,1.6,6.21,11.33,6.52,26.64-4.28,35.29l.09.18c2.45.38,4.89.8,7.32,1.27,3.2.62,6.41.57,9.45-.11l.34.22c1.02-.68,1.04,1.53.3,1.63-.45.52-1.72.7-2.46.76-5.51.45-10.81-.53-16.16-1.7l-.3-.25c-.51.02-1.01.05-1.49.09-13.86,8.3-33.09,8.42-47.21.22-.37.37-.7.51-.99.43l-.18.51c-7.35,6.32-15.12,17.48-15.24,27.47.14.81.1,1.54-.1,2.19l.51.84c3.56,8.37,12.35,2.33,11.3-4.65.41-5.12.84-10.53,2.97-15.26l-.22-.26c.12-.44.93-2.51,1.19-2.69,1.13-.76,2.28.46,1.66,1.65-.8,2.12-1.42,4.36-1.91,6.63l-.43.58.13.36c-.37,2.31-.66,4.65-.85,7l-.32.64c.04,2.36.14,4.76.3,7.21l-.15.48.49,1.72c.87,7.33,3.27,14.36,6.13,21.07l-.18.38c-2.53,2.3-3.19,5.12.91,5.61l.2.35c3.44.5,6.69.15,9.99-.78,1.82-.51,2.47-1.57,2.75-3.41.36-3.12.79-6.22,1.31-9.31.43-.37.25-.49-.54-.36-1.36-.11-8.98-2.23-9.96-3.52-.27-.36-.53-.89,0-1.11.24-.09.48-.13.74-.1l5.67,1.66c7.59,2.46,15.11.46,22.47-1.65l.4.09c.66.03.51.64.16,1.07-.67.82-5.99,2.69-6.89,2.92-1.22.32-2.46.58-3.72.7l1.5,10.48c.2,1.17,1.06,1.88,2.11,2.32,3.15,1.33,7,1.32,10.39.99l.13-.33c2.47-.4,4.23-1.48,2.45-4.06-.76-.63-1.27-1.36-1.53-2.21,2.96-6.58,5.07-13.54,5.98-20.7l.5-1.82-.22-.83c.28-2.53.4-5.02.37-7.45l-.32-.59c-.22-2.22-.5-4.43-.84-6.62l.13-.34c-.1-.11-.19-.22-.27-.34-.17-.27-1.66-5.27-1.86-6.09s-.56-2.91,1-2.45c.42.12,1.1.67.69,1.05.3.18.54.4.62.75l1.5,5.13c4.91,1.03,10.24.43,15.25-.48.52-.19.75.08.67.81.41.19.32,1.15-.15,1.18-.14.02-.32-.03-.44,0l-.44.15c-2.62.46-5.26.66-7.91.89-2.31.05-4.6-.23-6.88-.45,2.86,12.75,0,26.32-5.13,38.08.01.14,1.12,1.11,1.29,1.4,1.3.83,1.25,3.47.56,4.74-1.9,3.51-9.85,3.32-13.26,2.68-5.5-1.03-6.86-3.21-7.23-8.6l.26-.31-.35-.37c-.07-2.22-.4-4.35-.99-6.4-1.07.2-2.56.29-3.54-.13-.34,1.83-.63,3.69-.88,5.56l-.31.45c-.13.42-.1.73.1.95-.15,4.96-1.08,7.4-6.21,8.68-3.41.85-11.11,1.01-13.65-1.78-1.23-1.35-1.42-4.35.09-5.48Z"/>
    <g>
      <path class="cls-14" d="M133.61,117.95c-.08.02-.19.1-.44.15l.44-.15Z"/>
      <g>
        <path class="cls-53" d="M125.03,80.68c-.47,32.19-64.91,33.14-66.56.23-.03-.69-.09-1.65.15-2.3-.23,13.37,13.98,21,25.53,22.76,15.71,2.39,37.37-2.67,40.87-20.69Z"/>
        <path class="cls-47" d="M121.5,61.88c-3.02-5.06-7.4-9.22-12.53-12.1,2.75-5.55,9.97-5.84,13.99-1.41,3.01,3.32,3.83,8.41.73,11.98-.3.34-1.79,1.77-2.19,1.54Z"/>
        <path class="cls-17" d="M66.13,45.37c3.67-.46,6.79,1.15,8.61,4.32-3.65,2.12-6.9,4.6-9.61,7.85-1.03,1.23-1.99,3.05-2.98,4.12-.1.1-.12.28-.33.23-7.32-4.26-3.34-15.56,4.3-16.51Z"/>
        <g>
          <path class="cls-23" d="M101.96,51.1c.49.4.11,1.66-.59,1.77-6.27,1.06-16.21,1.05-22.18-1.18-.52-.36-.13-2.07.74-1.63,7.06,2.3,13.85,1.83,21.05.92.33-.04.66.04.98.11Z"/>
          <path class="cls-61" d="M109.06,37.05c-.43,3.46-1.33,6.87-1.81,10.32-1.47.82-3.08,1.17-4.7,1.51.86-1.72,1.81-3.39,2.64-5.12.71-1.48,1.46-3.79,2.24-5.08.35-.58,1.12-1.17,1.63-1.63Z"/>
          <path class="cls-31" d="M101.81,50.51c.76-.18.8.54.15.59-7.42,1.48-15.3,1.37-22.55-.89l-.22,1.48c-.22-.08-1.77-.64-1.77-.74v-2.07c2.31.73,4.64,1.39,7.05,1.75,5.4.82,11.99.85,17.36-.13Z"/>
          <path class="cls-38" d="M101.81,50.51c1.8-.33,3.63-.95,5.32-1.63v2.22c0,.12-1.85.84-2.11.93-1.19.41-2.42.64-3.66.85.44-.31.49-1.22.59-1.77.06-.3.41-.66-.15-.59Z"/>
          <path class="cls-43" d="M108.47,33.06h.2c.7.82,1.3-.16.76-.87l.52-.16c.44.04,1.13.44,1.26.88.91,2.9-3.58,2.89-2.74.16Z"/>
          <path class="cls-44" d="M73.37,33.04l.2.02c.64,1.03,1.94.19.95-.75l.23-.29c.68-.03,1.3.38,1.52,1.02s.01,1.35-.53,1.75-1.29.4-1.83,0-.76-1.12-.53-1.76Z"/>
          <path class="cls-21" d="M74.75,32.02c.03.41.46.5.46.96,0,.97-1.71,1.26-1.84.06.21-.59.75-.99,1.38-1.02Z"/>
          <path class="cls-9" d="M109.94,32.02c-.57.26-.03.3,0,.67.1.96-1.27,1.43-1.48.36.22-.72.67-1.1,1.48-1.04Z"/>
          <g>
            <circle class="cls-56" cx="92.29" cy="29.25" r="1.63"/>
            <path class="cls-4" d="M91.71,28.06c1.77-.39.7,1.76-.31,1.44-.39-.13-.47-1.27.31-1.44Z"/>
          </g>
          <g>
            <path class="cls-3" d="M107.43,38.68l.12.39c-1.31,3.07-2.67,6.09-4.3,9.1-.08.14-.19.26-.31.38s-.25.23-.39.34c-6.95,1.45-16.47,1.44-23.22-.89-.18-.1-.31-.22-.4-.36l-2.36-9.16c.24-.6.5-.48.95-.07l3.29,3.13c2.91,2.58,3.94,2.2,6.2-.7,1.6-2.33,3.11-4.72,4.52-7.16.58-1.03,1.04-1.15,1.74.08,1.59,2.63,3.24,5.23,4.94,7.78,1.65,2.5,3.01,2.1,5.19.26,1.12-1.12,2.29-2.17,3.52-3.15l.5.03Z"/>
            <path class="cls-59" d="M79.33,47.99c-.39-.13-1.84-.48-1.97-.77l-1.89-10.4c.06-.62.3-.64.76-.3,1.65,1.24,3.33,3.43,5.1,4.81,3.48,2.7,4.26.68,6.19-2.23,1.4-2.11,2.64-4.36,4.01-6.49.24-.4.99-.43,1.33-.15,1.81,2.62,3.27,5.61,5.13,8.18.84,1.17,1.44,2.26,3.12,1.99,1.14-.19,3.88-2.84,4.84-3.73.47-.44,2.19-2.38,2.52-2.52.18-.08.69.02.73.08.02.02-.13.4-.15.59-.26.63-.97,1.58-1.63,1.63-1.91,1.18-3.34,3.29-5.28,4.41-2.14,1.23-3.1.08-4.31-1.55-1.96-2.65-3.44-5.82-5.43-8.47-.31,0-2.84,4.51-3.27,5.16-.86,1.34-3.02,4.84-4.53,5.23-1.08.29-1.72-.04-2.6-.6-1.91-1.22-3.38-3.28-5.21-4.62l2.51,9.76Z"/>
            <g>
              <path class="cls-62" d="M92.01,38.55c.18-.05.35-.05.53,0,.47.14,2.59,3.32,2.89,3.92.33.66.48,1.02.21,1.78-.16.44-2.36,3.67-2.7,3.95-1.05.84-1.79-.63-2.33-1.35-.75-1-2.05-2.65-1.73-3.9.15-.59,2.66-4.26,3.14-4.41Z"/>
              <path class="cls-52" d="M94.71,43.56c-.3.29-.78.39-1.45.31l-.73,2.64c-.08.32-.24.47-.48.45-.46-.51-2.16-2.85-2.22-3.4.16-.32.47-.48.93-.48.81-.73,1.22-1.63,1.24-2.69l.34-.53c.22.05,2.37,3.3,2.37,3.7Z"/>
              <path class="cls-58" d="M94.71,43.56c0,.33-2.22,3.69-2.44,3.69-.12-.06-.15-.22-.22-.29.27-.42.76-3.19,1.06-3.38.21-.13,1.26.05,1.61-.02Z"/>
              <path class="cls-6" d="M92.35,39.86c-.11.5-.05,1.52-.22,1.92-.14.32-.95,1.08-1.11,1.55l-1.18.22c-.05-.44.98-1.88,1.3-2.33s.74-1.24,1.22-1.37Z"/>
            </g>
          </g>
          <g>
            <path class="cls-50" d="M101.77,35.75c.15.13,1.4,3.52,1.35,3.71-.62.49-1.74,1.85-2.56,1.73-.53-.08-2.11-2.22-1.99-2.71.05-.17,2.12-2.68,2.27-2.78.24-.15.73-.13.93.05Z"/>
            <path class="cls-42" d="M101.32,32.2c1.76-.53,2.25,2.34.13,2.03-1.19-.17-.95-1.79-.13-2.03Z"/>
          </g>
          <g>
            <path class="cls-46" d="M82.77,35.76c.08-.07.52-.18.64-.18.44.03,2.25,2.53,2.68,3.02-.45.7-1.52,2.79-2.47,2.53-.34-.1-2.07-1.53-2.15-1.85-.04-.18,1.15-3.41,1.3-3.53Z"/>
            <circle class="cls-20" cx="82.82" cy="33.22" r="1.09"/>
          </g>
        </g>
        <g>
          <path class="cls-22" d="M125.03,80.68c-.22,3.26-1.58,6.25-3.43,8.89-8.88,12.69-30.25,15.05-44.03,10.53-9.51-3.12-19.76-10.33-18.95-21.49.04-2.55.57-5.21,1.29-7.66,2.45-8.31,8.02-15.56,15.67-19.69.21-.03.6.64.87.87,3.4,2.88,15.95,3.12,20.41,2.81,3.88-.27,8.79-.72,11.83-3.25,10.08,5.73,16.52,17.38,16.35,28.99Z"/>
          <path class="cls-8" d="M91.9,90.59c-1.43,1.6-3.45,2.2-5.51,1.45-.87-.32-3.53-2.35-2.32-3.29.94-.73,1.49.97,2.22,1.46,1.64,1.12,4.28.55,4.56-1.63s-1.66-1.99-2.87-3.31c-2.26-2.48.12-4.31,2.68-4.57,2.4-.24,7.67.64,5.3,4.11-.68.99-2.91,1.91-3.1,2.52-.99,3.18,3.09,4.56,5.11,2.3.35-.4.65-1.55,1.47-.89,1.19.96-1.13,2.9-2.07,3.25-1.77.65-4.51.41-5.47-1.4Z"/>
          <g>
            <path class="cls-48" d="M102.37,67.55c9.92-1.34,17.98,14.69,8.57,18.48-6.06,2.43-11.12-3.05-13.14-8.21-1.52-3.86-.16-9.63,4.58-10.27Z"/>
            <g>
              <path class="cls-32" d="M102.96,73.02c4.71-.74,5.84,7.2,1.7,7.91-5,.86-5.89-7.26-1.7-7.91Z"/>
              <circle class="cls-13" cx="102.89" cy="75.75" r="1.15"/>
            </g>
          </g>
          <g>
            <path class="cls-2" d="M78.55,67.55c6.96-.88,9.32,5.49,6.67,11.11-2.34,4.98-6.93,10-12.95,7.22-8.55-3.96-1.38-17.35,6.28-18.33Z"/>
            <g>
              <path class="cls-24" d="M79.14,73.02c4.98-.86,5.15,7.33.99,7.94-5.05.74-5.05-7.23-.99-7.94Z"/>
              <circle class="cls-13" cx="80.57" cy="75.73" r="1.14"/>
            </g>
          </g>
        </g>
      </g>
    </g>
  </g>
  <g>
    <g>
      <path class="cls-26" d="M145.74,76.54c-.32-1.31-.11-3.13.59-4.29l.54-.38c14.72-2.53,19.61-21.72,9.36-31.99-11.18-11.21-28.13-1.72-28.49,12.82-.05.3-.14.5-.49.47-.32-2.03-1.66-4.74-3.11-6.21.55-1.23.93-2.53,1.5-3.75,6.95-14.86,26.1-17.41,35.89-3.84,10.23,14.19,2.12,35.64-15.8,37.17Z"/>
      <path class="cls-15" d="M146.33,72.25c.46-2.44.41-2.74,1.92-4.73,2.18-1.03,4.07-2.07,5.79-3.89,8.52-9.07,1.7-26.84-11.6-24.39-12.07,2.23-14.26,19.37-5.13,26.36,1.43,2.63,1.47,2.24,1.48,5.47-.11.03-.22.06-.34.07s-.21.01-.3-.02c-5.29-2.32-9.25-7.46-10.45-13.02l-.45-1.09c.22-1.2.19-2.64,0-3.85.45-.9.31-2.09.48-3.14,2.2-13.41,17.79-20.65,28.29-10.77,11.11,10.47,5.88,30.89-9.69,32.99Z"/>
      <path class="cls-57" d="M138.79,71.07c0,.86,0,1.72,0,2.59l-.29,2.44c0-.3,0-.59,0-.89-1.67-.09-3.44-1.16-4.81-2.07-4.37-2.87-6.5-6.23-8.67-10.86-.1-.22-.08-.46-.42-.39,1.25-1.22,2.34-3.15,2.66-4.88.34,0,.4.19.52.44.38.79.56,2.08.89,2.96,1.77,4.72,5.44,8.75,10.13,10.65Z"/>
      <path class="cls-39" d="M148.25,67.52c1.09-1.43,2.85-2.95,3.76-4.3s.51-2.71-.62-3.78c.3-2.65,1.28-5.64,1.44-8.27.03-.42.04-.86-.06-1.27s-.3-.43-.38-.58c-.81-.59-1.68-1.68-1.77-2.66-.55-.06-.87-.49-.74-1.04l-.41-.08-1.69-2.48c-1.11-1.66-1.91-2.52-3.62-.98-2.27,1.76-4.42,3.66-6.44,5.7l-.42.06c-.36.53-.52.89-.59,1.55l-.32,8.55c-3.51,2.02-.68,4.61.64,6.95.14.24.18.52.27.69-.34.06-.45-.11-.67-.29-8.82-7.12-6.18-23.82,5.25-26.26,14.91-3.18,22.07,17.91,10.41,26.53-1.11.82-2.67,1.81-4.04,1.95Z"/>
    </g>
    <g>
      <path class="cls-29" d="M140.86,87.63l.28.13-1.3,12.88-.31.15c-.53.12-1.28.48-1.77.74l.75-8.35v-5.55c.77.04,1.58-.06,2.36,0Z"/>
      <path class="cls-40" d="M141.6,100.64c-.63-.05-1.46.01-2.07.15l1.33-13.16c.42.03,2.41.33,2.5.68.04.15-.46,1.73-.53,2.1-.62,3.36-.98,6.82-1.23,10.24Z"/>
      <g>
        <path class="cls-63" d="M137.31,47.85c.83-.6,1.48.43.89,1.18.51.52.33,2.23-.15,2.74.12.01.29.05.3.13.07.61.11,3.26,0,3.79l-.3.22c.11.05.18.13.22.24s-.07,2.09-.1,2.34l-.26.3.33.04c1.55,1.93,3.43,3.74,5.44,5.13l.21-.49,5.52-3.61c.65-2.81,1.19-5.7,1.61-8.68l.35-.68c-.3-.03-.28-.18,0-.3-.61-1.01.19-1.87,1.04-.89.88-.3.79,1.51.72,2.13-.4,2.65-.88,5.29-1.45,7.91,1.86,1.69,1.28,3.26-.18,5.02-.91,1.1-2.05,2.38-3.23,3.14l.07.4c-1.04,1.19-1.45,2.57-1.65,4.11l-.34.22c-.27,1.43-.42,2.84-.59,4.29-.4,3.38-.61,6.32-.59,9.69.01,2.19-.66,4.08-1.01,6.23-.46,2.81-.72,5.66-1.06,8.48-.23.38-1.42.15-1.48-.3-.06-.2-.12-.41-.15-.62s-.07-.41-.05-.61c.28-3.69.68-7.52,1.65-11.01-.65-.24-1.33-.39-2.02-.46l-.16-.31c-.54.3-1.21.41-2.01.31.03,4.38-.3,8.83-.77,13.24l-.33.35c.04.49-1.3,1.31-1.77,1.18-.4-.2-.42-.51,0-.74.02-.13.13-.28.15-.51.04-.55.19-1.32-.44-1.12-.14-.24.08-.49.27-.41.55-4.65.71-9.03.67-13.66.7-3.2,1.22-6.41,1.58-9.65l.29-.54c.11-.46.05-.78-.18-.97.13-1.34.29-2.69.48-4.06l-.3-.3c.16-1.81-.31-3.29-1.31-4.79l.13-.38c-.78-.9-1.71-2.2-2.27-3.3-.97-1.9-.92-3.3,1.06-4.51l.34-8.52c.05-.86.34-1.33.87-1.42Z"/>
        <path class="cls-45" d="M142.78,69.29c.78.09,1.58.18,2.37.15-.98,5.75-1.79,11.59-1.63,17.45-.8-.07-1.57-.34-2.37-.44l-.28-.13c.53-5.62,1.07-11.25,1.6-16.88l.31-.15Z"/>
        <path class="cls-7" d="M142.78,69.29l-1.63,17.16c-.7-.09-1.58-.06-2.3-.15-.22-.03-.25.08-.21-.21.16-1.31.64-2.8.85-4.18.66-4.26.98-8.6.91-12.92.79.04,1.58.21,2.37.3Z"/>
        <path class="cls-1" d="M143.07,65.59l.7.11c.15.14.08,2.11-.11,2.4-.66-.05-3.07-.21-3.47-.59-.26-.24-1.48-2.9-1.82-3.5-.42-.73-1.95-2.82-2.07-3.41-.08-.38.09-1.09.56-.86,1.93,2.08,3.81,4.35,6.21,5.85Z"/>
        <path class="cls-27" d="M143.67,68.11c-.37-.63.02-1.67-.14-2.27-.03-.1-.32-.16-.45-.24.79.09,1.42-.45,2.06-.83,1.85-1.09,3.63-2.53,5.41-3.74.53.35.45.82.14,1.31-.56.88-2.05,2.22-2.81,3.11s-1.39,1.86-2.14,2.74c-.69.25-1.4-.02-2.07-.07Z"/>
      </g>
      <g>
        <path class="cls-14" d="M135.97,116.17c.13.14.2.28.22.42l-.9,4.65c.65-.05,1.08.09,1.28.4.33.1.58.04.76-.16l1.91.24c.02-1.3.01-2.61,0-3.92.44-.34,1.52-.24,1.92.15v3.78c-.01,2.08-.53,3.58-.86,5.64-.75,4.59-1.26,9.52-1.21,14.18.03,2.46-.27,3.06-.69,5.37-.71,3.96-1.22,8.06-1.38,12.07-.06,1.47.25,3.88,0,5.18-.09.47-.77.88-1.18,1.03-1.66.61-7.04.06-7.05-2.34,1.06-4.74,1.96-9.64,2.18-14.52.09-1.95-.19-4.17,0-6.07s1.01-4.23,1.31-6.23c.47-3.14.76-6.43.91-9.59.07-1.48-.14-3.14,0-4.59.11-1.19.65-2.7.89-3.92.07-.34.08-.8.15-1.18-.15-.72-.26-1.6.44-2.07.42-.14,1.45,1.04,1.33,1.48Z"/>
        <path class="cls-36" d="M134.94,143.83c.21.03,2.52.06,2.52.22-.7,2.6-1.17,5.3-1.48,7.99-.28,2.37-.5,4.85-.6,7.24-.03.67.15,4.26-.13,4.45-.48.32-2.13.02-2.67-.08.65-6.16,1.34-12.43,2.05-18.8l.31-1.02Z"/>
        <path class="cls-11" d="M134.94,143.83c-.71,6.22-1.17,12.49-1.92,18.71-.03.21-.09.41-.13.62-.05.28.12.58-.32.49-.75-.14-1.36-.21-2.05-.61-.13-.2.71-3.78.82-4.39.88-5.08,1.36-10.24,1.23-15.41.79.13,1.58.47,2.37.59Z"/>
        <path class="cls-49" d="M137.16,122.98c.79.1,1.6.2,2.37.37-1.39,6.31-2.32,12.98-1.92,19.45-.84.02-1.72-.16-2.51-.3l-.28-.13c.68-6.41,1.36-12.83,2.04-19.24l.31-.15Z"/>
        <path class="cls-34" d="M137.16,122.98l-2.07,19.52c-.8-.13-1.59-.29-2.37-.52.83-3.59,1.46-7.26,1.78-10.94.2-2.28.38-4.98.3-7.25-.01-.38-.18-.72-.15-1.1.83.12,1.68.19,2.51.3Z"/>
      </g>
      <path class="cls-7" d="M137.6,117.21l.26.43c.03.66-.14,3.85-.55,4.05l-.75-.04c-.49-.07-1.11-.02-1.63-.15l1.04-5.32c.4.34,1.15.8,1.63,1.04Z"/>
      <path class="cls-33" d="M139.23,117.8c.09.04.44.18.46.24-.31,1.28-.11,2.61-.08,3.91-.1.16-1.08.01-1.33,0-.56-.05-1.15-.21-1.7-.29.45.03.61.11.7-.4.22-1.25.23-2.76.33-4.03.57.28,1.09.37,1.63.59Z"/>
      <g>
        <path class="cls-25" d="M143.67,63.97c-.47-.1-.45-1.49,0-1.63l-.09-.33,3.56-3.5,1.09-6.69.32-.13c-.03-.11-.07-.28,0-.32.2-.12,2.36-1.04,2.49-1.05l.31.19c-.21,3.18-1.13,6.36-1.65,9.51l-6.04,3.95Z"/>
        <path class="cls-18" d="M149.88,45.63c-1.1.32.29,2.65.4,1.13l.34-.09c.6.89,1.26,1.72,1.77,2.66-1.08-.38-.98-.05-1.04.89l-.35.04c-1.75-2.5-3.5-4.98-5.26-7.46v-.27s-.36.51-.36.51c-2.22,1.75-4.46,3.61-6.47,5.68l-.42.03c.15.39.05.49-.3.3-.04-.81.05-1.09-.89-1.18.79-1.15,4.58-4.31,5.85-5.32.82-.66,2.16-1.97,3.22-1.45.89.44,2.82,3.58,3.51,4.55Z"/>
        <path class="cls-51" d="M138.49,48.73c.93.47,1.87.95,2.81,1.44l.15.34.17.3c-.51,2.19-.75,4.46-.72,6.81,0,.18-.16.24-.34.28.02.11.05.29-.03.32-.21.1-2.22.82-2.34.78s-.22-.1-.29-.21c-.1-.55-.02-1.81,0-2.45,0-.19.15-.38.15-.44v-4.14c0-.81.2-1.78.15-2.74.1-.09.21-.19.3-.3Z"/>
        <path class="cls-16" d="M151.36,50.21c0,.1,0,.2,0,.3l-2.81,1.18-.29-.05c-1.12-1.51-2.16-3.07-3.11-4.69-.06-.11-.13-.23-.13-.36.01-.54.18-3.34.3-3.64.06-.14.29-.33.42-.44.5.06,4.84,6.88,5.62,7.69Z"/>
        <path class="cls-37" d="M143.67,62.34v1.63c-.47.36-1.48-.72-1.92-1.11-.9-.79-2.79-2.57-3.48-3.48-.13-.17-.33-.39-.37-.59l2.66-.89c.11-.04.29-.1.34-.03.38.47,2.85,3.87,2.88,4.12.02.13-.04.25-.12.35Z"/>
        <path class="cls-63" d="M149.88,45.63c.25.35.5.68.74,1.04l-.29.97c-.7.41-2.04-2.27-.45-2.01Z"/>
        <path class="cls-41" d="M148.55,51.69l-1.12,6.94-3.76,3.71-3.11-4.44c.31-1.84-.03-5.91.89-7.39-.12-.42.09-.82.64-1.22l2.66-2.33h.4c.32-.01.4.18.57.39,1.05,1.32,1.76,3.02,2.83,4.34Z"/>
        <path class="cls-35" d="M145.74,42.52c-.54,1.12.06,3.64-.59,4.44-.95,1.17-2.87,2.22-3.7,3.55-.92-.16-1.77-.87-2.57-1.36-.19-.12-.47-.05-.39-.42,1.11-1.3,3.23-3.07,4.58-4.22.39-.34,2.35-2.03,2.66-1.99Z"/>
      </g>
    </g>
  </g>
  <g>
    <path d="M141.6,100.64c.3.02,1.2.2,1.48.3,6.29,2.13,4.59,16.46-1.92,17.01-.65.05-1.29-.02-1.92-.15-.39.34-1.6-.05-1.63-.59-.4.38-1.67-.48-1.63-1.04-.31-.26-1.1-1.14-1.33-1.48h-.35c-.54-.78-1.32-2.51-.98-3.4-.68-.7-.39-2.42-.22-3.41.19-1.06.5-2.11.98-3.07.37-.76,1.04-2.09,1.9-2.1.4-.36,1.29-.92,1.77-1.18.13-.56,1.4-1.21,1.77-.74.19-.56,1.8-.68,2.07-.15Z"/>
    <path class="cls-2" d="M144.55,112.48c-.41.78-.91,1.09-1.7,1.39-3.83,1.41-8.64-2.86-7.47-6.86,1.5-4.69,7.6-6.95,9.54-1.48.79,2.23.4,4.79-.37,6.95Z"/>
    <path class="cls-19" d="M144.55,112.48c-1.13,3.15-3.41,4.95-6.7,2.93-2.92-1.79-3.44-5.34-2.47-8.4-.59,4.77,5.28,9.11,9.17,5.47Z"/>
  </g>
</svg>