<?xml version="1.0" encoding="UTF-8"?>
<svg id="_레이어_1" data-name="레이어 1" xmlns="http://www.w3.org/2000/svg" viewBox="0 0 200 200">
  <defs>
    <style>
      .cls-1 {
        fill: #8ab45e;
      }

      .cls-2 {
        fill: #88b25c;
      }

      .cls-3 {
        fill: #84ae5a;
      }

      .cls-4 {
        fill: #91b961;
      }

      .cls-5 {
        fill: #fcfdfc;
      }

      .cls-6 {
        fill: #fff;
      }

      .cls-7 {
        fill: #010202;
      }

      .cls-8 {
        fill: #2d2c2a;
      }

      .cls-9 {
        fill: #2e2e2c;
      }

      .cls-10 {
        fill: #000101;
      }

      .cls-11 {
        fill: #93bc62;
      }

      .cls-12 {
        fill: #6d9742;
      }

      .cls-13 {
        fill: #93ba63;
      }

      .cls-14 {
        fill: #6e9543;
      }

      .cls-15 {
        fill: #fdfefd;
      }

      .cls-16 {
        fill: #3e3e3c;
      }

      .cls-17 {
        fill: #92bb62;
      }

      .cls-18 {
        fill: #fefefd;
      }

      .cls-19 {
        fill: #3d3d3b;
      }

      .cls-20 {
        fill: #3e3d3b;
      }

      .cls-21 {
        fill: #84ab5a;
      }

      .cls-22 {
        fill: #fdfdfc;
      }

      .cls-23 {
        fill: #8fba5f;
      }

      .cls-24 {
        fill: #91ba61;
      }

      .cls-25 {
        fill: #a3afad;
      }

      .cls-26 {
        fill: #54644b;
      }

      .cls-27 {
        fill: #d1d3d3;
      }

      .cls-28 {
        fill: #90b860;
      }

      .cls-29 {
        fill: #84ac5a;
      }

      .cls-30 {
        fill: #6f983f;
      }

      .cls-31 {
        fill: #6c9642;
      }

      .cls-32 {
        fill: #6d9741;
      }

      .cls-33 {
        fill: #000103;
      }

      .cls-34 {
        fill: #709645;
      }

      .cls-35 {
        fill: #fefefe;
      }

      .cls-36 {
        fill: #f8faf4;
      }

      .cls-37 {
        fill: #82aa58;
      }

      .cls-38 {
        fill: #9aa6a4;
      }

      .cls-39 {
        fill: #fffffe;
      }

      .cls-40 {
        fill: #feffff;
      }

      .cls-41 {
        fill: #fdfdfd;
      }

      .cls-42 {
        fill: #d1d3d2;
      }
    </style>
  </defs>
  <path class="cls-10" d="M51.38,147.35c-2.93-6.74-.23-16.07,8.34-15.39,1.3.1,2.36.56,3.54,1.02,1.03-1.08,2.51-1.6,3.49-2.71.07-1.53.15-3.06.29-4.58.1-1.1.57-2.82.53-3.82-.02-.6-.61-1.83-.79-2.52-1.55-5.99-.03-12.04,3.23-17.16.28-.45,2.03-2.67,2.03-2.84,0-.34-1.16-1.04-1.45-1.32-7-6.48-8.98-14.01-7.33-23.4.3-1.74.83-3.41,1.27-5.11-2.47,2.48-5.54,4.42-8.95,5.33s-4.66.87-2.66-2.66c1.69-2.98,4.49-5.61,7.44-7.31.58-.34,1.35-.54,1.8-1.03-3.81-.72-7.41-2.9-9.94-5.79-2.11-2.41-2.76-3.7,1.32-3.43,1.93.13,4.2.77,5.98,1.52,1.04.44,1.99,1.08,3.03,1.51-2.43-11.46,13.09-18.96,19.44-8.3,5.21-2.3,10.76-3.75,16.51-3.41.16-.14-2.11-3.44-.07-3.43,2.2.02,6.97,2.67,8.81,3.98,1.56,1.11,2.77,2.73,4.7,3.13-.33-2.23-.09-4.67.43-6.87.19-.8,1.04-3.64,1.6-4.06.96-.71,1.59.74,1.98,1.45.79,1.43,1.44,3.15,1.78,4.74,8.38-3.04,16.59,4.93,14.18,13.46-.21.75-.59,1.64-.99,2.3-.22.37-1.02,1.21-1.06,1.46-.05.33.43.96.49,1.43.1.75.1,3.08-.23,3.7-.15.28-.53.5-.55.76-.01.24.72,1.98.85,2.44,2.53,8.84,2.39,17.97-3.95,25.15l-3.1,3.09c.18.09.63.56.74.58.17.03,1.7-1.56,1.96-1.83,1.38-1.47,2.73-3.47,4.14-4.81s3.41-2.56,4.94-3.88c3.88-3.37,7.4-7.24,10.61-11.25.68-.55,1.67.09,2.27.48,1.19.76,2.83,2.39,3.43,3.68s.51,1.4-.44,2.29c-3.65,3.41-8.39,6.5-11.53,10.47-.1.13-.25.17-.2.4,5.12-1.18,10.46-.51,15.19,1.73.65.31,3.12,1.53,3.22,2.18.11.73-.84,1.01-1.36,1.22-4.42,1.79-10.25,1.85-14.81.66l2.34,2.86c.99,1.4,2.75,4.76,2.79,6.43.04,1.5-1.28.82-2.07.48-4.45-1.96-8.72-5.91-10.05-10.69l-5.12,4.3.05.3c2.15,2.68,4.09,5.93,4.75,9.35.74,3.89-.2,8.19-3.1,11-.83.8-1.8,1.24-2.75,1.86.09.9.03,1.85.11,2.74.16,1.78,1,1.69,2.28,2.59.26.19,1.27,1.12,1.36,1.14.13.03,2-.76,2.52-.86,9.21-1.76,12.47,8.29,9.24,15.5l.11.39c-3.74,7.02-9.19,8.48-16.61,6.7-5.07-1.22-10.16-2.75-15.18-4.33-9.51,2.1-19.45,2.11-28.95,0-4.31,1.33-8.65,2.55-13,3.76-2.92.81-6.88,1.73-9.85,1.2-4.24-.76-7.36-3.86-9.21-7.59.14-.11.19-.24.12-.38Z"/>
  <g>
    <g>
      <path class="cls-42" d="M130.26,81.25c-.74,27.63-48.67,30.88-62.05,11.55-2.91-4.2-3.85-8.37-3.79-13.46,0-.22-.08-.59.13-.72-.08,2.08-.01,3.37.66,5.34,7.11,20.95,43.28,22.7,57.94,9.48,3.59-3.24,5.99-7.48,7.11-12.18Z"/>
      <path class="cls-6" d="M108.13,56.23l-7.96-.79c-4.59-.11-9.15.17-13.7.67s-9.22,1.18-13.63,2.63c-.1-.09.8-1.12.92-1.25.84-.94,2.05-1.96,3.05-2.75,6.37-5.01,14.63-7.61,22.77-6.99,1.66,2.62,3.68,4.89,6.15,6.76.79.6,1.71,1.06,2.41,1.73Z"/>
      <path class="cls-27" d="M128.41,70.06c-18.22-6.98-38.47-7.45-57.12-1.75-1.65.5-3.23,1.2-4.9,1.62.17-.49.41-1.75.82-2.02.36-.24,1.4-.57,1.87-.75,1.1-.41,2.36-.8,3.49-1.12,16.26-4.53,33.82-4.62,50.04.13,1.01.3,4.23,1.23,4.92,1.79.42.34.69,1.54.87,2.09Z"/>
      <g>
        <path class="cls-40" d="M128.41,70.06c1.24,3.64,1.95,7.33,1.84,11.19-.91,6.59-5.54,12.13-11.15,15.45-12.88,7.63-34.17,7.38-46.21-1.85-4.98-3.81-9.12-9.86-8.35-16.24.12-2.98.85-5.9,1.84-8.69l.45-.39c19.39-7.05,41.57-7.4,61.01.13l.55.4Z"/>
        <path class="cls-7" d="M98.14,86.92c0,1.11-.27,2.02.58,2.88,1.17,1.18,3.01,1.28,4.28.2.54-.46,1.25-1.92,2.11-1.06.62.62-.13,1.44-.6,1.92-1.63,1.7-4.17,2.08-6.14.74-.24-.17-.94-.89-1.08-.86-1.66,1.86-4.39,2.24-6.45.76-.58-.42-2.23-2.01-1.22-2.62s1.62.98,2.48,1.48c1.62.96,4.22.07,4.44-1.94.03-.26.05-1.23-.06-1.39-.07-.11-1.8-.84-2.24-1.18-2.01-1.57-2.17-3.62.49-4.51,1.7-.57,4.9-.59,6.35.57,2.45,1.95-.94,4.63-2.95,5.01Z"/>
        <g>
          <path class="cls-19" d="M108.1,67.85c8.04-1.03,16.8,11.65,9.84,17.21-8.54,6.82-19.6-9.21-13.3-15.53.78-.78,2.37-1.54,3.46-1.68Z"/>
          <g>
            <path class="cls-33" d="M108.76,73.25c5.03-.62,5.22,8.79.02,7.81-3.87-.73-3.86-7.33-.02-7.81Z"/>
            <circle class="cls-41" cx="108.42" cy="76.06" r="1.13"/>
          </g>
        </g>
        <g>
          <path class="cls-16" d="M84.53,67.86c6.63-.72,8.56,5.66,6.33,10.94s-7.29,10-13.11,6.96c-8.23-4.31-.81-17.07,6.78-17.89Z"/>
          <g>
            <path class="cls-33" d="M85.06,73.25c4.58-.56,4.9,7.81.1,7.88-4.32.06-4.32-7.36-.1-7.88Z"/>
            <circle class="cls-5" cx="86.17" cy="76.05" r="1.13"/>
          </g>
        </g>
      </g>
      <g>
        <path class="cls-20" d="M69.91,59.61l-3.7,1.34c-3.49-3.75-2.58-9.55,1.16-12.76,2.93-2.51,7.23-3.1,10.51-.89.55.37,2.83,2.35,2.4,3.01-.1.16-2.68,1.67-3.14,2-2.78,1.99-5.31,4.49-7.24,7.31Z"/>
        <path class="cls-20" d="M118.16,52.78c.29-2.01.39-4.08,0-6.09,4.23-2.04,9.14.23,11.33,4.18,1.76,3.17,1.73,7.5-1.03,10.08-1-.57-2.58-.75-3.52-1.31-.51-.31-1.78-2.21-2.32-2.82-1.3-1.45-2.89-2.87-4.46-4.04Z"/>
        <path class="cls-1" d="M114.06,56.89c-2.54-.46-5.07-1.94-7.15-3.44-3.24-2.35-5.68-5.43-7.33-9.06,6.25,1.97,11.7,6.55,14.48,12.51Z"/>
        <path class="cls-12" d="M96.81,58.86c0,.74,0,1.49,0,2.24-3.14-.04-6.29.04-9.41.4-2.57.3-5.08.93-7.63,1.32-.17-.03-.29-1.72-.34-1.98.19-.11.38-.21.58-.3s.39-.17.6-.21c1.23-.25,2.47-.46,3.7-.65,3.42-.55,7.82-1.2,11.24-1.05.43.02.85.1,1.26.24Z"/>
        <path class="cls-12" d="M115.11,60.71c-.16.69-.22,1.42-.4,2.11-2.37-.48-4.77-1.04-7.18-1.32-1.63-.19-3.36-.33-5-.4-.67-.03-4.45.13-4.62-.12-.13-.18-.06-1.72-.06-2.12.17-.07.35-.13.53-.17s.36-.08.53-.08c5.05.08,10.21.83,15.19,1.67.17.03.34.1.51.17s.33.16.49.26Z"/>
        <path class="cls-2" d="M115.51,56.1c-.23.17-1.17-2.64-1.25-2.9-.83-2.77-1.08-5.46-.7-8.34.08-.59.7-3.72,1.1-3.91,2.47,4.65,3,10.25.85,15.14Z"/>
        <path class="cls-4" d="M79.43,60.84c-.07-.41-.61-1.95-.27-2.18,5.86-.83,11.73-1.53,17.65-1.77,0,.66,0,1.32,0,1.98-5.85.07-11.67.78-17.38,1.98Z"/>
        <path class="cls-3" d="M54.01,73.61c.98-2.05,2.62-3.98,4.34-5.47s3.82-2.51,5.93-3.36c-.15.63.39,1.89.24,2.41-.07.25-1.64,1.85-1.95,2.14-2.37,2.16-5.41,3.69-8.56,4.28Z"/>
        <path class="cls-4" d="M97.86,58.86c0-.66,0-1.32,0-1.98,5.96.25,11.85,1.12,17.78,1.71.11.11-.45,1.78-.53,2.11-5.71-.93-11.44-1.85-17.25-1.84Z"/>
        <path class="cls-29" d="M64.66,62.79c-.22.14-2.67-.48-3.11-.6-3.43-.99-6.84-3.12-8.85-6.09,2.77.23,5.41.91,7.86,2.21.75.4,2.39,1.35,2.94,1.93.14.15,1.35,1.79,1.38,1.91s-.18.61-.22.64Z"/>
        <path class="cls-17" d="M65.99,64.39c.15-2.04,1.15-2.08,2.86-2.73,2.92-1.12,6.02-1.83,9.03-2.68.24.05.29,1.45.35,1.72,0,.25-.04.48-.13.67-4.07,1.05-8.23,2.13-12.03,3.65-.1-.2-.12-.41-.08-.63Z"/>
        <path class="cls-24" d="M128.68,64c.04.38-.02.7-.16.97-3.95-1.46-7.96-2.7-12.05-3.74l-.3-.26c.07-.33.29-2.02.59-2.08,2.15.66,4.35,1.21,6.49,1.91,1.06.35,4.52,1.38,5.09,2.15.3.41.26.61.34,1.05Z"/>
        <path class="cls-32" d="M116.17,60.97c4.14,1.14,8.42,1.97,12.32,3.82l.19-.79c.15.82.23,1.65,0,2.5-.22.19-2.27-.77-2.69-.92-3.3-1.15-6.74-2.04-10.21-2.5,0-.73.25-1.41.4-2.11Z"/>
        <path class="cls-12" d="M78.24,60.71c.15.78.37,1.58.53,2.37-4.3.7-8.49,1.91-12.56,3.43-.12-.02-.19-.37-.2-.48-.07-.57-.05-1.12-.01-1.64.02.3-.14.46.28.34.7-.2,1.5-.68,2.23-.93,3.1-1.06,6.31-1.8,9.48-2.64l.26-.46Z"/>
        <path class="cls-15" d="M121.83,58.73l-5.08-1.44.87-2.64c.2-.06.22.06.33.13.57.39,1.6,1.34,2.11,1.84.65.64,1.25,1.36,1.77,2.11Z"/>
      </g>
    </g>
    <g>
      <path class="cls-6" d="M108.79,113.64c-.16.71-.62,1.16-1.12,1.71-2.87,3.23-6.37,6.15-9.77,8.81-2.92-2.12-6.37-3.03-9.31-5.14-1.55-1.12-3.38-2.85-4.44-4.45-.11-.48.22-.45.56-.56,6.83-2.28,15.63-2.45,22.62-.82.49.11,1,.21,1.45.46Z"/>
      <g>
        <path class="cls-20" d="M72.71,101.4l.71.26c12.82,9.95,32.59,10.13,45.82,1.27.48-.21,1.2-.16.74.44-1.15,1.02-2.31,2.03-3.43,3.09-4.8.04-6.83,2.88-7.77,7.18l-.29.14c-7.74-2.06-16.82-2.02-24.33.78-.5-.76-1.46-3.73-2.56-2.23-.43.59.28,1.69.61,2.27,1.48,2.61,4.29,5.17,6.83,6.73,3.66,2.24,10.72,3.81,10.52,9.29-.47,1.05-1.89,1.69-2.94,2.13-6.92,2.86-16.51-1.42-21.86-5.98-3.07-2.61-5.9-6.11-6.81-10.1-.65-5.64,1.37-10.88,4.74-15.28Z"/>
        <path class="cls-8" d="M119.98,103.37c.08-.37-.22-.3-.45-.26-.57.11-2.05,1.28-2.71,1.64-10.14,5.58-22.71,6.23-33.61,2.53-3.82-1.3-7.48-3.2-10.51-5.89.14-.18.7-1.18.86-1.18.53.47,1.21.86,1.82,1.21,12.3,6.97,30.81,7.13,43.24.4.49-.27,3.08-2,3.27-2,.3,0,.89.63,1.12.85-.95.96-2.02,1.8-3.03,2.7Z"/>
        <path class="cls-8" d="M67.97,116.67c2.05,5.74,6.28,10.07,11.5,13.06,5.83,3.34,14.47,5.85,20.1.9-.18,5.11-6.88,6.19-10.83,5.62-9.61-1.39-19.62-9.58-20.78-19.58Z"/>
        <path class="cls-28" d="M109.71,118.38l.07.3-8.86,8.73-.3-.08c-.53-.69-.93-1.46-1.58-2.04,3.21-2.68,6.78-5.47,9.55-8.62.1-.11.19-.24.19-.4.17-.12.82,1.9.92,2.11Z"/>
        <path class="cls-31" d="M100.63,127.34l9.09-8.95c.2.41,1.03,1.34.86,1.71-2.85,2.83-5.65,5.7-8.17,8.83-.11.13-.18.15-.33.07-.46-.24-1.13-1.24-1.45-1.65Z"/>
        <g>
          <path class="cls-19" d="M132.76,117.72c-.67,2.73-3.22,4.4-5.88,4.8-5.12.78-12.87-2.95-15.11-7.68-.55-1.15-.96-2.47-.47-3.71,2.82-5.08,8.15-2.62,12.07-.42.84.47,2.25,1.6,2.97,1.9.59.25,1.24.06,1.28-.63.06-1-2.82-2.19-3.55-2.75l4.02-4.01c2.88,3.51,5.3,7.8,4.67,12.51Z"/>
          <path class="cls-8" d="M132.76,117.72c-.5,3.71-3.07,7.16-6.93,7.76-6.69,1.03-18.74-6.78-14.54-14.34-.27,3.99,2.83,6.96,6.02,8.8,5.15,2.98,12.42,4.22,15.45-2.21Z"/>
          <g>
            <path class="cls-37" d="M155.14,98.76c-3.69,1.14-7.67,1.38-11.48.75-2.16-.35-4.62-1.02-6.42-2.27.02-.48,3.34-1.15,3.9-1.23,4.12-.58,8.42,0,12.21,1.71.18.08,1.9.9,1.8,1.03Z"/>
            <path class="cls-13" d="M148.43,80.33l.12.25-14.7,14.96-.3-.07c-.37-.36-1.61-1.37-1.79-1.71-.08-.15-.06-.22.06-.33,5.47-4.18,10.42-9.01,14.76-14.36.3-.15,1.56,1,1.84,1.26Z"/>
            <path class="cls-11" d="M132.89,96.39l-.6.88c-3.35,3.71-7.08,7.23-10.69,10.55l-.43-.1c-.23-.09-2.77-.86-2.63-1.05.16,0,.29-.09.4-.19,4.2-3.69,8.2-7.62,11.78-11.93.11-.13.18-.15.33-.07.36.19,1.47,1.53,1.84,1.92Z"/>
            <path class="cls-34" d="M133.55,95.47l14.88-15.14c.47.44.91.88,1.27,1.43.18.28.56.73.33,1.01-5.37,4.25-10.48,8.85-14.76,14.23-.15.12-.22.01-.33-.07-.44-.3-.98-1.06-1.38-1.46Z"/>
            <path class="cls-21" d="M144.74,108.64c-3.99-2.03-7.63-5.23-8.69-9.74,4.15,1.6,7.33,5.58,8.69,9.74Z"/>
            <path class="cls-14" d="M121.17,107.72c.26,0,.37-.18.53-.33,3.85-3.55,7.55-7.23,11.19-11,.38.39,1.02.81,1.32,1.25.08.11.23.18.07.34-4.12,3.12-7.93,6.64-11.53,10.34-.38.17-1.17-.44-1.58-.6Z"/>
          </g>
        </g>
        <path class="cls-26" d="M101.42,129.97h-.26s0-.53,0-.53c.26.07.3.28.26.53Z"/>
      </g>
      <path class="cls-6" d="M112.08,143.14c-1.57.56-3.1,1.23-4.71,1.67-4.42,1.21-9.49,1.55-14.04.94-.34-.05-2.57-.38-2.58-.57l4.27-5.07c3.85-1.02,7.12-3.61,7.65-7.76,2.7-2.25,5.24-5.88,7.96-7.97.89-.69.87.12,1.45.67,3.18,3,7.46,4.97,11.92,4.67.68-.05,1.98-.45,2.51-.41.3.02.16.25.32.41-.02.2.05.42-.22.51-6.33.51-11.46,4.74-13.74,10.55-.28.71-.62,1.64-.79,2.37Z"/>
      <g>
        <path class="cls-30" d="M89.17,138c.47.05,1.18.12,1.64.14s.92-.1,1.39-.07l-6.39,7.06c-.21.19-.62-.2-.85-.35-.51-.36-.92-.78-1.33-1.24l-.04-.3,1.26-.95,3.89-4.21.42-.07Z"/>
        <path class="cls-18" d="M75.08,131.81c.17.17.1.21-.13.13-2.07-1.03-4.16-1.64-6.45-1.98.16-1.74.06-3.55.46-5.27,1.64,2.76,3.65,5.08,6.12,7.11Z"/>
        <path class="cls-23" d="M89.17,138l-4.14,4.48-1.39,1.05c-.21-.23-1.37-1.66-1.26-1.85,1.69-1.24,3.31-2.57,4.82-4.02.32-.14,1.54.29,1.97.33Z"/>
        <path class="cls-36" d="M78.24,134.05c2.15,1.27,4.71,2.4,7.11,3.03.05.23-.12.33-.26.46-.79.77-1.89,1.59-2.77,2.3-.75-1.06-1.29-2.23-2.06-3.28-.62-.85-1.37-1.7-2.16-2.38-.17-.19-.1-.25.13-.13Z"/>
        <g>
          <path class="cls-42" d="M83.77,145.9c.54.42,1.61,1.14,2.29,1.05.65-.08,2.05-2.21,2.58-2.83,1.4-1.61,4.52-5.28,6.12-6.39,1.15-.8,2.58-.96,3.95-2.11,1.49-1.26,1.44-2.19,2.37-3.43.44-.59,1.54-1.16,2.1-1.72,1.33-1.34,2.61-3.27,3.96-4.73,1.47-1.59,3.12-3.03,4.61-4.6,3.79,3.87,9.36,6.98,14.94,5.79.02.77.15,1.46.13,2.24,0,.17.02.36,0,.53-.15,0-.33-.04-.54-.14-5.41,1.42-11.53-.95-15.08-5.2-.41-.06-2.43,2.03-2.87,2.49-1.71,1.99-3.53,3.86-5.45,5.62-.44,4.09-3.93,6.92-7.74,7.86l-3.97,4.76c6.78,1.51,14.08.54,20.57-2.01l.34.06c.1.8.05,1.63-.16,2.49.02.99-.11,1.91-.37,2.78-1.32.11-3.14.68-4.56.9-5.51.83-11.15.96-16.68.27-2.01-.25-4.55-1.04-6.41-1.17-.1,0-.26-.03-.27-.1-.04-.2-.16-2.1-.12-2.2s.15-.15.25-.2Z"/>
          <g>
            <path class="cls-9" d="M111.56,148.41c-.05-1.76.12-3.55.53-5.27-.32-.56.21-2.09.79-2.37l1.64,1.85c3.37,3.2,12.02,5.95,16.62,6.31.25.02.48.03.7-.12l.36.05c1.88,2.42,5.58,1,6.44-1.62l.32-.14c2.37-1.41,3.74-4.14,4.48-6.72.58,5.44-2.6,11.53-8.21,12.92-3.33.82-8.1-.63-11.44-1.5s-7.21-2.44-10.64-3.19c-.53-.11-1.03-.24-1.58-.2Z"/>
            <path class="cls-39" d="M138.95,147.09c-.8,3.06-5.17,4.65-7.11,1.71-2.25-3.4,1.42-8.32,5.23-6.34,1.57.81,2.32,2.97,1.89,4.63Z"/>
            <g>
              <path class="cls-16" d="M143.42,140.37c-.2,2.64-1.88,5.2-4.01,6.73l-.46-.02-.21-.27c.34-7.62-9.59-4.59-6.8,1.65l-.1.33c0,.13-.02.27-.11.34-.61.49-6.78-1.18-7.82-1.51-4.08-1.3-8.44-3.05-11.05-6.5v-.37c-.02-.1-.04-.2-.05-.31-.05-.65,1.29-2.75,1.74-3.41,2.85-4.14,7.2-6.61,12.01-7.19l.27-.16c-.1-.23-.1-.41,0-.53.36.35-.02.94.06,1.32.33,1.59,2.96,2.34,3.89,3.49-1.1,1.03-2.12,2.15-2.83,3.49-.33.62-.81,1.35.02,1.83,1.05.61,1.37-.96,1.84-1.69,4.06-6.34,12.79-4.99,13.62,2.75Z"/>
              <path class="cls-18" d="M137.72,136.98c2.3-.53,1.9,3.33.1,3.4s-1.47-3.09-.1-3.4Z"/>
              <path class="cls-35" d="M133.61,137.14c1.85,0,1.68,3.5,0,3.5s-1.72-3.5,0-3.5Z"/>
              <path class="cls-22" d="M141.01,139.88c1.85-.11,1.21,3.21-.53,2.99-1.52-.19-.9-2.91.53-2.99Z"/>
            </g>
          </g>
          <g>
            <path class="cls-8" d="M56.65,147.22l.31.14c.81,2.43,4.08,3.72,6.05,1.83h.35c5.29-1.09,11.13-2.14,15.74-5.12.58-.38,1.7-1,1.77-1.72.33,1.02,2.03,2.89,2.9,3.56l.13,2.5c-1.81-.12-7.67,2.12-9.85,2.73-2.88.8-8.48,2.49-11.29,2.55-7.05.15-11.66-7.46-10.73-13.84.02,1.46.88,3.1,1.66,4.33s1.71,2.36,2.95,3.04Z"/>
            <path class="cls-6" d="M63.36,149.2c-2.08,2.36-6,.85-6.72-1.98-.92-3.64,2.21-6.57,5.57-4.58,2.12,1.25,2.81,4.67,1.15,6.56Z"/>
            <g>
              <path class="cls-20" d="M74.95,131.95c.32.05.62.23.92.53.54.3.97.64,1.45.92.26.26.53.52.79.79,1.78.97,3.28,3.33,4.19,5.16l.02.5c-1.01.82-1.98.85-1.45,2.5.14.47.05.69-.31.99-4.65,3.58-10.82,4.85-16.54,5.98-.1.02-.21,0-.32-.02s-.23-.06-.34-.11l-.05-.35c3.52-6.41-7.17-9.93-6.46-1.93l-.2.31-.42.06c-2.22-1.66-4.36-4.56-4.19-7.43.95-6.57,8.62-8.39,12.77-3.35.41.5.82,1.17,1.17,1.73s.49,1.68,1.52,1.08c.76-.44.17-1.4-.11-1.96-.64-1.27-1.69-2.38-2.7-3.36,1.34-1.54,3.59-1.64,3.82-4.02.1-.05.21-.1.31-.13,1.07-.29,5.25,1.17,6.14,2.1Z"/>
              <g>
                <path class="cls-25" d="M78.24,134.05l-.13.13c-.24-.21-.67-.46-.86-.66-.1-.11-.06-.14.07-.13.32.18.67.51.92.66Z"/>
                <path class="cls-38" d="M75.87,132.47c-.29-.16-.65-.39-.92-.53l.13-.13c.26.21.6.37.79.66Z"/>
                <path class="cls-18" d="M61.74,137.12c1.76-.09,1.85,3.46.1,3.51s-1.75-3.43-.1-3.51Z"/>
                <path class="cls-18" d="M57,136.98c1.84-.4,2.57,3.02.86,3.38s-2.45-3.03-.86-3.38Z"/>
                <path class="cls-41" d="M54.24,139.87c1.46-.19,2.36,2.65.86,2.98-1.71.37-2.52-2.76-.86-2.98Z"/>
              </g>
            </g>
          </g>
        </g>
      </g>
    </g>
  </g>
</svg>