<?xml version="1.0" encoding="UTF-8"?>
<svg id="_레이어_1" data-name="레이어 1" xmlns="http://www.w3.org/2000/svg" viewBox="0 0 200 200">
  <defs>
    <style>
      .cls-1 {
        fill: #f7e8d5;
      }

      .cls-2 {
        fill: #dbc5ad;
      }

      .cls-3 {
        fill: #585350;
      }

      .cls-4 {
        fill: #c7c6c7;
      }

      .cls-5 {
        fill: #252525;
      }

      .cls-6 {
        fill: #010101;
      }

      .cls-7 {
        fill: #c9c7c8;
      }

      .cls-8 {
        fill: #fbfcfb;
      }

      .cls-9 {
        fill: #c9c9c9;
      }

      .cls-10 {
        fill: #fff;
      }

      .cls-11 {
        fill: #fafbfa;
      }

      .cls-12 {
        fill: #c4b199;
      }

      .cls-13 {
        fill: #f4e6d6;
      }

      .cls-14 {
        fill: #c5b199;
      }

      .cls-15 {
        fill: #fdf8ec;
      }

      .cls-16 {
        fill: #c9c2c2;
      }

      .cls-17 {
        fill: #353535;
      }

      .cls-18 {
        fill: #fef9ed;
      }

      .cls-19 {
        fill: #343434;
      }

      .cls-20 {
        fill: #dbc6ab;
      }
    </style>
  </defs>
  <g>
    <path d="M141.63,100.9c-.17-.9-1.19-5.84-1.6-6.22-1-.96-3.24,2.34-3.88,2.21-.23-.04-1.39-1.18-1.63-1.44-1.13-1.27-1.78-3.45-3.93-2.68.93-5.83-.66-11.93-3.21-17.16.08-.19.25-.01.36.04,3.06,1.4,6.14,2.77,9.22,4.13.43.14,1.07.01,1.21-.46.14-.46-.68-2.96-.87-3.61-3.87-12.89-13.24-25.78-26.18-30.59-21.27-7.9-40.22,8.09-47.29,27.18-.69,1.86-2.04,5.5-2.27,7.35-.12.96.16,1.49,1.2,1.34l8.99-4.11c.09-.03.09.11.06.2-.35,1.09-1,2.26-1.37,3.44-1.28,4.07-1.79,8.4-1.22,12.65-1.36.89-2.06,2.4-3.15,3.55-.27.29-2.21,2.07-2.4,2.13-1.63-.17-3.73-3.25-4.61-.73-.73,2.07-1.18,5.71-1.4,7.95-.61,5.97-.24,11.99,1.14,17.7.45-.52.95-.98,1.49-1.38,1.39,6.55,4.18,12.83,8.52,17.9.23,0,3.55-2.12,3.68-2.29.2-.28.22-1.24-.01-1.55,0,.15.12.8-.2.67-4.84-4.18-8.62-9.44-10.96-15.37,4.17-2.29,9.96-1.31,14.25,2.19,2.84,2.32,4.99,5.95,5.9,9.71.16.64.28,1.28.35,1.92h0c.32,2.51.05,4.99-.97,7.09-1.39-.68-2.75-1.44-4.08-2.28-.52-.33-2.25-1.37-2.55-1.73-.13-.15-.1-.18-.14-.33l-4.34,3.07c-.04.09.55.81.67.94,1.63,1.87,3.47,3.54,5.47,4.99-.38.17-.78.32-1.2.45-.23.07-.46.14-.7.19.76.6,1.55,1.17,2.37,1.72.09.14.18.27.29.4.1.12.21.24.34.32,12.84,8.58,32.11,8.69,45.23.51.27-.16.54-.33.81-.51.12-.09.23-.2.33-.32.11-.13.2-.26.29-.4,9.25-6.13,14.91-15.1,17.42-25.13,1.91-7.54,2.03-15.68.57-23.65Z"/>
    <g>
      <g>
        <path class="cls-1" d="M140.74,114.41c-.37,2.91-1.13,5.73-2.24,8.4-3.48,8.46-10.32,15.51-18.45,19.73-.38.2-.77.39-1.15.58-12.39,5.97-25.84,5.48-38.15-.26-.57-.27-1.14-.54-1.7-.83-.72-.36-4.46-2.49-5.03-3.21-.2-.24-.18-.27.06-.5.04.15.01.18.14.33.3.36,2.03,1.4,2.55,1.73,1.33.84,2.69,1.6,4.08,2.28,1.02-2.1,1.29-4.58.97-7.08.55.77,1.22,1.82,1.48,2.14.36.42.93.77.7-.02-.12-.42-1.82-3.54-2.09-3.79-.13-.12-.23-.25-.42-.26h-.02c-.91-3.76-3.06-7.39-5.9-9.71-4.29-3.5-10.08-4.48-14.25-2.19,2.34,5.93,6.12,11.19,10.96,15.37.32.13.2-.52.2-.67.08.24.19.84-.11.91-.54.14-3.99-3.68-4.66-4.47-2.74-3.22-5.1-7.01-6.64-11-.93-2.4-1.56-4.88-1.81-7.34-.24-4.77.07-9.1,1.07-13.76l.23-.15,9.15,7.25c3.16-2.13,6.35-4.22,9.56-6.26,3.22,2.38,6.39,4.82,9.52,7.33,1.92-.72,3.8-1.52,5.65-2.42,1.82,1.05,3.62,2.15,5.38,3.32l.44.15c2.04-1.42,3.98-2.99,5.83-4.74l.59-.21,3.52-3.4c.07-.08.15-.15.22-.21.02-.03.05-.05.07-.07.16-.13.32-.24.48-.34.08-.05.16-.09.24-.13.09-.05.18-.09.27-.12.04-.12.08-.12.14,0,3.9,2.75,7.77,6.06,11.22,9.08-.12.06-.05.07.13,0,.01.05.02.08.02.11.27,1.55.83,3.09,1.13,4.64-.04.55-2.73,2.68-3.13,3.36-.03,2.28-.1,4.58.11,6.85h.4l.6-6.28c.87-.96,1.9-1.9,2.95-2.67.51-.06,2.99,2,3.84,2.3.15.05.32.14.36-.1.09-.6-3.2-2.96-3.64-3.84-.24-.49-.92-2.95-1-3.54-.05-.37-.12-1.17.03-1.5,2.34-1.93,4.72-3.82,7.02-5.81,2.14-1.85,4.19-3.84,6.34-5.67.14-.12.89-.75,1-.67.38,1.53.77,3.08,1.03,4.64.71,4.22.9,8.46.71,12.72Z"/>
        <path class="cls-2" d="M120.95,149.37c-2.16,1.27-4.5,2.36-6.99,3.25-12.3,4.35-27.42,2.5-38.08-5.3-2-1.45-3.84-3.12-5.47-4.99-.12-.13-.71-.85-.67-.94l4.34-3.07c.04.15.01.18.14.33.3.36,2.03,1.4,2.55,1.73,1.33.84,2.69,1.6,4.08,2.28,11.95,5.86,26.1,5.92,38.02.16,0,.1.02.2.03.3.09,1.05.3,2.09.61,3.11.38,1.23.87,2.27,1.44,3.14Z"/>
        <path class="cls-2" d="M140.74,114.41c-.14,3.05-.54,6.04-1.22,8.91-.39-.25-.82-.46-1.27-.62,1.14-2.65,1.98-5.43,2.49-8.29Z"/>
        <path class="cls-18" d="M108.68,101.86c.7-.31,1.33-.73,1.6-1.47.08-.07.16-.17.27-.27.47-.3,1.06-.57,1.6-.4.27.23.52.45.8.67.21.98-.74.84-1.34.4-.04,0-.09,0-.13,0-.48.18-.91.46-1.28.87l-3.53,3.41c-.81.8-1.59,1.53-2.47,2.27-.46.38-3.64,2.92-3.88,2.94-.9.08-4.75-3.09-5.88-3.47-1.93.67-3.68,2.09-5.72,2.4-3.25-2.32-6.24-5.01-9.49-7.35l-9.49,6.4-9.41-7.47c.04-.18.09-1.16.13-1.2l.4.07c2.44,1.96,4.84,4.15,7.36,6,.4.29,1.2,1.01,1.66,1l9.45-6.38,9.28,7.3c.55.14,1.48-.35,2.03-.57,1.31-.52,2.52-1.29,3.8-1.8l5.19,3.24c1.14.44,2.6-1.07,3.5-1.77,1.93-1.49,3.74-3.16,5.55-4.8Z"/>
        <path class="cls-20" d="M72.49,138c-.13.17-3.45,2.29-3.68,2.29-4.34-5.07-7.13-11.35-8.52-17.9-.56-2.59-.9-5.22-1.03-7.84l.87,3.74c.34,1.18.73,2.33,1.19,3.46,2.34,5.93,6.12,11.19,10.96,15.37.32.13.2-.52.2-.67.23.31.21,1.27.01,1.55Z"/>
        <path class="cls-15" d="M122.97,109.87c.15.56-.68-.23-.73-.27-3.58-2.88-7.11-5.85-10.62-8.81.61.07.93.37,1.34-.4,3.35,2.63,6.53,5.45,9.83,8.14.36.36.12.91.19,1.35Z"/>
        <path class="cls-15" d="M111.48,100.79l-4.81,4.27c1.22-1.2,2.57-2.98,3.94-4.01.4-.3.44-.32.87-.27Z"/>
      </g>
      <g>
        <path class="cls-14" d="M124.18,107.33c-1.03-2.56.21-2.69,1.6-4.21s2.83-3.89,3.63-5.72c.27-.62.46-1.69.78-2.16.17-.25,1.05-.95,1.33-.81.25.12,1.22,1.59,1.54,1.95.56.63,1.24,1.17,1.8,1.8l-10.68,9.15Z"/>
        <path class="cls-15" d="M108.68,101.86c.54-.49,1.07-.98,1.6-1.47.18.85-.87,1.47-1.6,1.47Z"/>
        <g>
          <path class="cls-13" d="M135.21,76.64c-.01.12-.05.25-.08.37-2.97-1.26-5.88-2.61-8.82-3.94-.15-.06-.31-.09-.47-.08-.97.06-5.82,4.49-6.38,4.4l-7.52-4.92c-.12-.08-.15-.13-.13-.28.05-.62.82-1.64.88-2.46.05-.76-.44-2.63-.25-3.18.08-.21,3.06-2.18,3.59-2.69.1-.1.96-.96.33-.88l-5.21,2.68c-.26.54.3,2.93.19,3.79-.05.4-.86,2.22-1.12,2.49l-10.06,5.98-.47-.13-7.2-4.96-1.66-1.14-.65-.16-10.84,7.6c-.17.02-.57-.32-.72-.45-.94-.77-2.06-2-3.12-2.98-.5-.46-.98-.87-1.42-1.15-.66-.42-1.05-.08-1.69.17-2.62,1.01-5.28,2.42-7.92,3.49-.11-.08-.22-.17-.25-.3-.09-.54,1.1-3.9,1.48-4.63,5.57-14.9,19.64-28.1,36.45-26.87,15.82,1.15,29,15.12,33.05,29.88.03.11.02.22.01.35Z"/>
          <path class="cls-18" d="M135.8,77.01c.08.14.08.22,0,.27-.22-.09-.45-.17-.67-.27-5.19-19.44-24.8-36.24-45.65-28.49-10.34,3.84-18.12,12.67-22.63,22.52-.37.8-.64,1.83-1.02,2.59-.13.27-.49.47-.54.67-.04.16.09.38.05.58-.25,1.09-.82,2.18-.88,3.33-.18.07-.36.18-.53.27-.15.12-.22.05-.13-.13.05-.16.08-.34.13-.53l.13-.4c.05-.17.08-.35.13-.53l.13-.4c3.86-12.79,12.5-25.04,25.44-29.79,22.05-8.09,40.32,10.63,46.02,30.32Z"/>
          <path class="cls-13" d="M64.2,76.88c.05-.16.1-.29.13-.4l-.13.4Z"/>
          <path class="cls-13" d="M63.93,77.81c.04-.15.1-.29.13-.4l-.13.4Z"/>
          <path class="cls-13" d="M63.93,78.48s0,.2-.27.13c-.07-.27.13-.25.13-.27l.13.13Z"/>
          <path class="cls-13" d="M135.8,77.01c.03.09.22.18.13.4-.15.02-.12-.13-.13-.13v-.27Z"/>
        </g>
        <g>
          <path class="cls-12" d="M69.67,95.05c.32,1.4.85,2.75,1.53,4.01.29.54,2.08,2.95,2.08,3.14,0,.17-.11.23-.2.34-.18.19-3.02,2.14-3.21,2.14l-5.14-4.21,4.95-5.41Z"/>
          <path class="cls-7" d="M118.83,102.93c5.72-2.64,10.12-8.98,10.15-15.36.22.14.13.51.14.73.07,5.59-1.15,10.06-5.07,14.16-.41.43-2.36,2.16-2.8,2.28-.1.03-.18.06-.27-.01-.71-.6-1.42-1.22-2.14-1.81Z"/>
          <path class="cls-4" d="M76.62,99.85c-.31.21-1.53,1.45-1.87,1.28-.21-.1-1.38-1.84-1.58-2.17-2.1-3.55-2.63-7.11-2.44-11.2.02-.48.13-1.2.27-1.66-.24,2.9.07,5.34,1.27,8.01.99,2.19,2.5,4.21,4.34,5.75Z"/>
          <path class="cls-15" d="M112.15,99.72c-.43.39-1.07.25-1.6.4.31-.28.6-.68,1-.91.26.1.42.36.6.51Z"/>
          <g>
            <path class="cls-10" d="M122.59,100.86c-.63.52-2.82,2.17-3.47,2.13-.1-.01-.19-.04-.29-.07-1.98-1.6-4.51-4.08-6.55-5.4-.23-.14-.56-.36-.83-.32-.35.06-1.49,1.09-1.84,1.38-2.92,2.5-5.4,5.11-8.54,7.42-.62.38-1.24.35-1.87,0-1.22-.73-2.73-1.81-3.92-2.43-1.26-.67-2.24.41-3.38.94-.4.18-2.7,1.25-2.89,1.2l-9.36-7.36c-.09-.05-.18-.08-.29-.09-.38,0-2.28,1.28-2.74,1.59-.1,0-.21,0-.31-.02-.53-.13-1.74-1.61-2.15-2.14-2.66-3.36-3.88-7.35-3.15-11.6.19-2.28,1.02-5.07,1.87-7.21.56.02,1.09.29,1.58.84l3.03,2.57c.75.75,1.51,1,2.26.74l5.78-3.87s.01-.01.02-.01l4.13-2.76.24-.16.3-.1c2.98,1.9,5.99,3.75,9.03,5.55.62.35,1.26.28,1.91-.21,3.14-1.88,6.31-3.71,9.51-5.47,0,0,2.93,1.81,8.79,5.42l.68-.21c1.98-1.23,3.94-2.51,5.87-3.82l.3.16c1.3,2.9,2.69,6.8,2.67,10.01.42,5.09-2.55,10.14-6.39,13.3Z"/>
            <path class="cls-16" d="M101.07,106c-.22.16-.57.66-.86.67-.43-.01-.74-.51-1.01-.67h1.87Z"/>
            <path d="M98.63,90.14c2.46-.29,7.36.45,4.04,3.64-2.08,2-4.36,1.58-6.08-.6-1.44-1.83.27-2.82,2.04-3.04Z"/>
            <path class="cls-6" d="M99.56,97.35c2.96-.61,3.01,4.63,0,4.08-1.83-.33-1.85-3.7,0-4.08Z"/>
            <g>
              <path class="cls-3" d="M109.85,79.19c7.01-.85,14.86,10.64,8.22,15.3-7.89,5.54-17.54-9.15-10.8-14.27.66-.5,1.76-.93,2.58-1.03Z"/>
              <g>
                <path d="M110.11,84.26c2.39-.41,3.88,1.85,3.64,4.04-.1.93-.9,2.19-1.86,2.41-4.39,1.02-4.99-5.91-1.78-6.46Z"/>
                <circle class="cls-11" cx="110.12" cy="86.34" r=".92"/>
              </g>
            </g>
            <g>
              <path class="cls-3" d="M88.21,79.19c1.96-.24,3.95.38,5.23,1.9,5.02,5.98-5.07,19.27-12.15,13.09-5.52-4.81,1.03-14.28,6.92-14.99Z"/>
              <g>
                <path d="M88.48,84.26c5.15-.89,3.64,8.32-.82,6.37-2.66-1.16-1.83-5.91.82-6.37Z"/>
                <circle class="cls-8" cx="89.65" cy="86.34" r=".92"/>
              </g>
            </g>
          </g>
        </g>
      </g>
    </g>
    <path class="cls-19" d="M125.36,57.24c-2.26,5.21-8.57,5.08-12.75,2.3-3.52-2.33-6.26-6.93-4.88-11.22.32-.99.97-1.47,1.32-2.37,6.06,2.01,11.99,6.66,16.31,11.29Z"/>
    <path class="cls-9" d="M125.2,75.42c-1.64,1-3.26,2.62-4.91,3.52-.81.44-.99.33-1.77-.08l-7.91-5.14-9.94,5.9c-.7.44-1.17.1-1.76-.25-2.51-1.51-4.91-3.45-7.39-5.1-.44-.31-.89-.59-1.34-.87l-8.85,6.38-1.87,1.35c-.38.06-.86-.29-1.17-.52-1.5-1.09-2.88-2.75-4.41-3.86-.36.69-.71,1.4-1,2.13,1.84,1.16,3.33,2.97,5.17,4.12.68.42.99.63,1.82.27l10.33-6.9c2.95,1.63,5.75,4.01,8.77,5.47,1.15.56,1.21.42,2.32-.13l9.35-5.47c2.46,1.37,4.72,3.12,7.13,4.57.37.22,1.32.85,1.67.87,1.24.09,5.47-3.57,6.87-4.13-.16-.37-.74-2.18-1.11-2.13Z"/>
    <path class="cls-19" d="M92.49,72.83l-1.66-1.14-.65-.16-10.84,7.6c-.17.02-.57-.32-.72-.45-.94-.77-2.06-2-3.12-2.98-3.07-6.67,3.34-18.77,11.93-18.84,2.09-.01,4.19.95,5.5,2.57,2.91,3.63,2.16,9.05-.44,13.4Z"/>
  </g>
  <path class="cls-17" d="M104.39,113c7.86-.31,10.72,7.56,8.06,14.06-2.95,7.18-13.77,12.82-19.08,5.02-5.09-7.48,2.42-18.74,11.02-19.08Z"/>
  <path class="cls-17" d="M81.47,133.65c-.67-.02-4.91-.18-5.06-.4l-1.29-6.98c-.18-.66-.53-.62-.51.09l.39,7.07c-.14.38-2.1.93-2.4,1.34-.23.32-.11,1.23-.12,1.68,0,.15.12.8-.2.67-4.84-4.18-8.62-9.44-10.96-15.37,4.17-2.29,9.96-1.31,14.25,2.19,2.84,2.32,4.99,5.95,5.9,9.71Z"/>
  <path class="cls-17" d="M80.85,142.66c-1.39-.68-2.75-1.44-4.08-2.28-.52-.33-2.25-1.37-2.55-1.73-.13-.15-.1-.18-.14-.33-.21-.77-.19-1.78-.38-2.58.58-.42,1.47-.96,2.18-1.03,1.62-.16,3.53.11,5.19.03.15.04.43.39.75.83h0c.32,2.51.05,4.99-.97,7.09Z"/>
  <path d="M81.82,135.57c-.32-.44-.6-.79-.75-.83-1.66.08-3.57-.19-5.19-.03-.71.07-1.6.61-2.18,1.03.19.8.17,1.81.38,2.58l-4.34,3.07c-.04.09.55.81.67.94,1.63,1.87,3.47,3.54,5.47,4.99-.38.17-.78.32-1.2.45-.23.07-.46.14-.7.19-7.87-6.13-12.91-14.73-15.18-24.19.45-.52.95-.98,1.49-1.38,1.39,6.55,4.18,12.83,8.52,17.9.23,0,3.55-2.12,3.68-2.29.2-.28.22-1.24-.01-1.55.01-.45-.11-1.36.12-1.68.3-.41,2.26-.96,2.4-1.34l-.39-7.07c-.02-.71.33-.75.51-.09l1.29,6.98c.15.22,4.39.38,5.06.4.16.64.28,1.28.35,1.92Z"/>
  <path class="cls-5" d="M72.49,138c-.13.17-3.45,2.29-3.68,2.29-4.34-5.07-7.13-11.35-8.52-17.9.25-.18.51-.35.78-.5.08-.06.16-.1.25-.14,2.34,5.93,6.12,11.19,10.96,15.37.32.13.2-.52.2-.67.23.31.21,1.27.01,1.55Z"/>
  <path class="cls-5" d="M80.85,142.66c-.02.07-.06.14-.1.2-.96,1.9-2.54,3.47-4.87,4.46-2-1.45-3.84-3.12-5.47-4.99-.12-.13-.71-.85-.67-.94l4.34-3.07c.04.15.01.18.14.33.3.36,2.03,1.4,2.55,1.73,1.33.84,2.69,1.6,4.08,2.28Z"/>
  <path class="cls-5" d="M139.52,123.32c-2.54,10.96-8.86,20.34-18.57,26.05-.57-.87-1.06-1.91-1.44-3.14-.34-1.12-.56-2.26-.64-3.41,2.15-1.03,4.22-2.26,6.2-3.67,5.82-4.16,10.39-9.9,13.18-16.45.45.16.88.37,1.27.62Z"/>
  <path class="cls-17" d="M125.07,139.15c-1.98,1.41-4.05,2.64-6.2,3.67-.75-10.52,8.99-21.77,17.38-20.63.72.1,1.39.27,2,.51-2.79,6.55-7.36,12.29-13.18,16.45Z"/>
  <path class="cls-17" d="M71.43,107.02c4.8-.77,3.66,8.17-.95,7.56-3.59-.48-2.46-7.01.95-7.56Z"/>
  <path class="cls-17" d="M132.14,103.61c5.51-.71,6.07,11.12.16,9.91-3.87-.79-4.33-9.37-.16-9.91Z"/>
</svg>