<?xml version="1.0" encoding="UTF-8"?>
<svg id="_레이어_1" data-name="레이어 1" xmlns="http://www.w3.org/2000/svg" viewBox="0 0 200 200">
  <defs>
    <style>
      .cls-1 {
        fill: #c59a50;
      }

      .cls-2 {
        fill: #a27728;
      }

      .cls-3 {
        fill: #f7db9e;
      }

      .cls-4 {
        fill: #f7dda0;
      }

      .cls-5 {
        fill: #f7efdc;
      }

      .cls-6 {
        fill: #252525;
      }

      .cls-7 {
        fill: #a07627;
      }

      .cls-8 {
        fill: #eac56d;
      }

      .cls-9 {
        fill: #f7dc9f;
      }

      .cls-10 {
        fill: #e1d1b8;
      }

      .cls-11 {
        fill: #f5dca3;
      }

      .cls-12 {
        fill: #a17627;
      }

      .cls-13 {
        fill: #f6dc9d;
      }

      .cls-14 {
        fill: #a37727;
      }

      .cls-15 {
        fill: #f2d691;
      }

      .cls-16 {
        fill: #9f7426;
      }

      .cls-17 {
        fill: #f5dca2;
      }

      .cls-18 {
        fill: #f6dc9f;
      }

      .cls-19 {
        fill: #9e7526;
      }

      .cls-20 {
        fill: #a87e33;
      }

      .cls-21 {
        fill: #f7dc9d;
      }

      .cls-22 {
        fill: #c79b50;
      }

      .cls-23 {
        fill: #e3d3ba;
      }

      .cls-24 {
        fill: #353535;
      }

      .cls-25 {
        fill: #9f7526;
      }

      .cls-26 {
        fill: #f7dc9e;
      }

      .cls-27 {
        fill: #c59950;
      }

      .cls-28 {
        fill: #c99b50;
      }

      .cls-29 {
        fill: #f5dc9f;
      }

      .cls-30 {
        fill: #343434;
      }

      .cls-31 {
        fill: #9e7527;
      }
    </style>
  </defs>
  <path d="M156.61,129.38c-1.08-2.57-2.86-4.71-4.89-6.58l-1.54-1.2,5.93.94c1.4-.27.58-1.32,0-2.01-2.73-3.26-7.25-5.37-11.41-6,.65-.96,5.37-2.87,5.58-3.56.26-.86-.39-1.05-1.1-1.11-3.88-.36-7.69.51-11.28,1.87,2.6-11.91.27-24.76-4.34-35.88-7.51-18.11-25.65-39.08-46.88-25.94-16.91,10.46-27.23,37.11-25.49,56.42.17,1.85.54,3.73.93,5.54-2.43-1.01-5.01-1.85-7.67-2.01-.74-.04-3.81-.1-4.31.11-.56.23-.55.85-.26,1.33l5.43,3.24c-3.72.51-7.21,2.13-10.01,4.6-.74.66-3.56,3.02-1.4,3.41l5.93-.94-1.54,1.2c-2.1,1.99-4.12,4.24-5.14,7-.32.87-1.06,2.79.7,2.31.77-.21,2.93-1.7,3.83-2.17.19-.1,1.26-.67,1.34-.6-1.07,3.6-.2,8.16,1.47,11.47.33.65,1.99,3.3,2.54,3.53.28.12.77.14,1.01-.05.34-.27.45-3.16.63-3.91.03-.13.04-.4.23-.37,1.56,2.31,3.87,4.11,6.2,5.61,9.85,6.3,23.56,8.24,35.09,8.54,10.3.27,21.28-.42,31.16-3.41,6.52-1.97,13.42-5.14,17.68-10.61.36,1.06.1,2.19.19,3.27.06.67.21,1.5,1.11,1.24.61-.18,2.66-3.28,3.03-3.98,1.84-3.46,2.46-7.5,1.6-11.34.27-.29,4.95,2.97,5.65,2.9,1.25-.13.25-2.21-.02-2.86ZM116.63,117.02c6-6,11-12,15-19-4,7-9,13-15,19Z"/>
  <g>
    <g>
      <path class="cls-6" d="M135.51,99.52c-1.14-.67-2.74-1.23-4.13-1.09-3.8,6.54-8.48,12.22-14.04,17.86-.11,2.04.37,4.09,1.05,6.05.24.7.68,1.77,1.23,2.19.72-.62,1.42-1.31,2.07-2,.44-.47,1.45-2.35,2.21-1.28.65.92-.4,4.29-.68,5.41,1.2-.14,2.4-.36,3.58-.62.75-.17,3.29-.74,3.76-1.17.44-.4,1.35-1.97,1.71-2.56,3.6-6.08,5.28-13.81,5.23-20.85-.24-.88-1.22-1.48-1.99-1.93Z"/>
      <path class="cls-30" d="M130.44,98.65c-7.28.45-12.51,9.04-12.81,15.74-.16.63-.25,1.26-.29,1.9,5.56-5.64,10.25-11.32,14.04-17.86-.33.03-.65.1-.95.22Z"/>
      <path class="cls-10" d="M117.56,116.07c-.31.32-.61.63-.93.95.32-.32.62-.63.93-.95,0-.56.02-1.12.07-1.68l-.26,1.27c-10.25,6.13-22.54,7.19-34.02,4.2-.06.24-.06.51,0,.8l-.25.55c.03,1.83-.2,3.65-.76,5.39l.08.6c2.05,1.05,4.28,1.67,6.54,2.13-.58-1.11-3.22-2.54-3.64-3.51-.4-.95.61-1.06,1.3-1.03,2.98.14,5.6,1.49,8.06,3.01.53.32,1.98,1.52,2.38,1.62.92.25,4.73.31,5.7.16.66-.1,2.56-1.93,3.29-2.45,1.69-1.2,3.54-2.19,5.56-2.71,5-1.3.05,3.03-.77,4.57.91.03,2.06-.44,2.93-.8,2.02-.84,4.21-2.25,5.87-3.67-.33-1.02-.91-1.94-1.24-2.97-.56-1.75-.83-3.64-.83-5.5Z"/>
      <path class="cls-30" d="M83.34,119.86c.02.26,0,.54,0,.8-.33.12-.45-.51-.29-.6-8.14-1.92-15.89-6.51-20.25-13.67-.1-.89-.23-1.62-.27-2.53.32.08-.09,1.38.33,1.2.29-.12,1.02-.8,1.49-1.05,9.39-4.88,18.38,7.42,18.99,15.86Z"/>
      <path class="cls-6" d="M62.8,106.39c.29.05.29.15.42.33,1.82,2.4,3.42,4.43,5.79,6.34,4.12,3.32,9.07,5.51,14.19,6.82l.15.79c.09,2.28-.16,4.39-.93,6.54-.97-.5-2.06-1.15-2.92-1.81-.49-.37-2.25-2.14-2.62-2.2-1.39-.21-.75,2.55-.73,3.34-.22.22-5.31-1.06-5.97-1.3-.31-.11-.58-.13-.84-.37-.53-.48-1.8-2.79-2.2-3.54-2.49-4.67-3.76-9.7-4.33-14.95Z"/>
      <path class="cls-30" d="M124.7,63.03c-2.93,4.87-9.16,3.9-12.94.6-3.18-2.77-5.29-7.7-3.36-11.77.45-.94,1.16-1.33,1.63-2.18,5.74,2.79,11.01,8.19,14.68,13.34Z"/>
      <path class="cls-23" d="M137.51,101.45c-.07-10.67-3.36-21.87-8.34-31.22-.45-.84-.95-1.78-1.54-2.53,1.5,4.04,3.02,8.12,3.83,12.38,1.16,6.14,1.13,12.17-.52,18.22l-.51.36c.28-.02.55-.02.82-.01.12-.21.25-.41.37-.62-.12.21-.25.41-.37.62,2.47.04,4.48.98,6.25,2.81Z"/>
      <g>
        <path class="cls-5" d="M117.63,114.39l.29-.37c.64-6.62,5.07-14.08,12.13-15.07l.39-.3.73-.23c2.86-10.22,1-21.27-3.53-30.72-.48-1.3-2.08-3.47-2.94-4.67-.36.1-.64.35-.86.76-7.44,8.01-21.39-6.1-13.7-13.77l-.12-.32c-11.95-5.81-23.26-.11-31.29,9.07-10.13,11.59-16.84,29.64-16.21,45.1.02.56.13,1.05.33,1.46,9.51-7.14,19.23,5.2,20.19,14.23l.3.32c.13.1.26.2.39.28.14.08.27.16.42.19,10.91,2.81,23.19,1.47,32.96-4.22.35-.47.52-1.05.51-1.72Z"/>
        <path class="cls-24" d="M102.66,85.22c7.86-.31,10.72,7.56,8.06,14.06-2.95,7.18-13.77,12.82-19.08,5.02-5.09-7.48,2.42-18.74,11.02-19.08Z"/>
        <path class="cls-30" d="M89.05,60.93c2.09-.02,4.19.94,5.5,2.57,6.24,7.77-4.36,23.76-13.77,19.78-9.53-4.03-2.27-22.26,8.28-22.35Z"/>
        <path class="cls-24" d="M125.07,79.87c5.51-.71,6.07,11.12.16,9.91-3.87-.79-4.33-9.37-.16-9.91Z"/>
        <path class="cls-24" d="M73.3,88.94c4.8-.77,3.66,8.17-.95,7.56-3.59-.48-2.46-7.01.95-7.56Z"/>
      </g>
    </g>
    <g>
      <path class="cls-28" d="M50.12,127.2c.8-.35,1.6-.71,2.4-1.07-.17.91.25,1.89.27,2.74,0,.5-.16,1.12-.14,1.74.07,2.02.71,4.04,1.34,5.93.24.03.12-.28.1-.43-.2-1.5-.54-2.96-.36-4.51,1.43,1.57,3.03,3.55,4.81,4.73.18.12.31.24.52.07.11.27.33.45.67.53-.29.26.22.45.42.58,2.07,1.52,4.55,2.84,6.92,3.82l.16.09c-.29,1.25.06,1.56,1.04.94,1.81-1,3.73-1.83,5.74-2.47l.4.11.15.4-1.04,2.49c.16-.14.27-.2.49-.08,1.68-.96,3.35-2.07,5.34-2.27-1.24,1.04-2.35,2.27-2.8,3.87,3.79.77,7.62,1.51,11.48,1.94.2.02.53.2.67-.07l.35-.02c.39.43,2.9,2.71,3.34,2.41.12-.08-.91-1.4-1.1-1.54l.08-.31c.3-.02.47.15.35-.28-.37-1.32-.85-2.61-1.01-3.99h.3c1.28,1.78,3.48,4.26,5.84,4.14.33.48.93.49,1.54.53,3.24.23,7.42.03,10.67-.27,1.04-.1,2.09-.3,3.14-.4l-3.25-1.35c-1.09-.62-2.34-1.01-3.29-1.85,3.72.71,7.49,1.28,11.27,1.6,1.13.09,2.49.25,3.59.27.5.01,1.14.07,1.54-.27l.34-.1c1.1.91,2.56,1.69,1.6-.59l.19-.25c.85-.17,1.7-.16,2.56-.31s3.02-.54,3.5-1.17c.32-.41,1.14-2.52,1.14-2.99v-2.07c1.29.93,1.54,2.48,2.07,3.87,2.23-1.05,4.5-2.18,6.48-3.65.19-.14.4-.18.38-.48.15-.16.37-.25.67-.27.05-.09.7-.5.87-.66.43-.42,1.81-1.69,1.99-2.14s.08-.71-.19-1.06c.15-.14,1.14.9,1.26,1.07.36.53.61,1.36.61,1.99.42-.33.66-1.1.84-1.63.87-2.54,1.17-5.57,1.16-8.24.17-.17,1.95.8,2.27.93-.48-.06-.94.03-.94.6,2.06,4.75.89,9.77-1.86,13.94l-.26-.07c.04-.9-.35-5.13-1.94-3.67-.41.38-1,1.47-1.46,2.01-10.83,12.56-38.89,13.55-54.17,12.27-10-.84-24.96-4.13-32.02-11.74-.94-1.01-1.6-2.23-2.42-3.32-.62-.16-1.07,1.38-1.21,1.83-.25.81-.3,1.66-.5,2.43-.03.12-.03.3-.2.26-2.07-3.41-3.29-7.49-2.47-11.47.2-.96,1.5-3.33-.2-3.07Z"/>
      <path class="cls-22" d="M65.73,125.2c1.7.74,3.52,1.34,5.31,1.83.89.24,6.86,1.64,7.23,1.37-.29-.81-.67-1.65-.67-2.53.46.2.82.66,1.2.93-.32.11.03.36.13.47,1.87,2,3.79,3.7,6.27,4.93-2.56.11-5.31-.39-7.79-1.01-4.18-1.05-8.56-3-11.68-5.99Z"/>
      <path class="cls-13" d="M107.89,133.47c-.23-.07-.38-.3-.4-.53l1.2-1.87c4.85-.53,9.35-3.08,12.94-6.27-2.57,5.14-8.3,7.74-13.74,8.67Z"/>
      <path class="cls-4" d="M130.84,126.54c.29.08-.18.3-.25.35-3.9,2.87-7.97,5.12-12.76,6.19-.21-.11-.01-.23.06-.34.35-.48.71-.81.93-1.4,1.66.83,2.8-2.6,3.66-2.95,2.8-.5,5.64-1.01,8.35-1.86Z"/>
      <path class="cls-27" d="M140.44,120.4c-2.43,1.39-4.78,2.99-7.47,3.87.5-1.2,1.28-2.26,1.85-3.42s1.17-2.46,1.62-3.65c1.21.21,2.81,1.13,3.53,2.14.17.24.43,1.01.48,1.06Z"/>
      <path class="cls-1" d="M63.46,116.93c.43,1.16,1.08,2.66,1.62,3.78s1.32,2.24,1.85,3.42c-2.3-.54-4.23-2.05-6.27-3.14-.41-.22-.85-.5-1.34-.46.24-.64.73-1.19,1.14-1.73l3-1.87Z"/>
      <path class="cls-3" d="M57.33,116c.09.03,1.36.96,1.51,1.09.14.12.28.13.22.38-2.56-.34-5.57.31-7.92,1.35-.7.31-1.6.71-2.09,1.32-1.01.1-2.04.45-3.07.47,2.02-2.01,4.98-3.61,7.76-4.25.77-.18,2.91-.57,3.58-.36Z"/>
      <path class="cls-18" d="M143.11,116c3.67-.19,8.42,2.05,10.94,4.67-1.14-.2-2.31-.43-3.47-.53,0-.29-.17-.36-.35-.51-1.44-1.15-4.71-2.16-6.54-2.4-.5-.07-2.54-.12-2.72-.22-.24-.13-.03-.24.09-.32.67-.44,1.26-.64,2.05-.69Z"/>
      <path class="cls-11" d="M137.11,115.2c.55-1.58.03-1.37,1.78-2.16,2.43-1.1,5.29-1.69,7.96-1.71l-2.8,1.73c-.35-.18-.87-.04-1.25.02-2.24.35-3.53,1.02-5.41,2.19-.21.13-.31.38-.28-.08Z"/>
      <path class="cls-17" d="M56.39,113.33c-.93-.71-2.2-1.18-3.07-2,2.52.09,5.11.58,7.43,1.58.25.11,1.66.77,1.74.86.25.27.31,1.2.43,1.57-1.83-1.08-3.77-2.1-5.94-2.27-.22-.02-.7-.13-.6.27Z"/>
      <path class="cls-7" d="M67.06,141.35c.26-.88,1.37-2.56,2-3.27.95-1.08,2.65-2.48,4.15-2.41.72.5-1.42,1.63-1.8,1.95-.92.77-1.94,1.92-2.34,3.06.81-.35,1.58-.8,2.4-1.13,1.02-.41,2.52-.9,3.6-1.08.2-.03.54-.18.67.07.07.07.17.19.13.26-.18.32-1.15,1.51-1.46,1.21-1.15.57-2.83,1.03-4.09,1.58-.64.28-2.17,1.25-2.68,1.34-1.01.17-.77-.89-.57-1.58Z"/>
      <g>
        <path class="cls-8" d="M153.5,126.89c-.94-1.28-2.39-2.73-3.67-3.67-.57-.42-3.39-1.94-3.49-2.26-.44-1.51,3.37-.92,4.25-.84.19-.11.25-.17.18-.36-.53-1.43-7.49-3.23-9.36-2.98.44-.3.97-.46,1.5-.52l.22-.28c-.23-.26-.7,0-.95-.32-.71-.89,1.36-2.1,1.88-2.62-.03-.13-.06-.31-.16-.33-1.6-.4-5.53,1.46-6.77,2.47-.22.64-.44,1.41-.67,2l.15.3c1.47.42,3.09,1.3,3.54,2.86l.31.04s.35.02.4.21c.09.31-1.12,1.42-1.4,1.66-2.19,1.84-5.88,3.42-8.6,4.27-3.86,2.54-7.92,5.12-12.57,6.15.28-.32.53-.67.72-1.06l-.17-.29c.54-1.41.49-1.14,1.31-2.36.95-1.41,1.86-3.13,2.29-4.78.02-.07.04-.22-.06-.2-.29.19-.51.6-.73.8-1.57,2.09-3.07,3.88-5.3,5.3-2.42,1.55-5.2,2.48-8.01,3.02l-.43.35-.45.13c-.96,1.3-2.01,2.5-3.17,3.62-.18.17-1.24,1.11-1.46.73-.37-.64,3.65-4.63,4.61-4.75l.06-.27c.43.04,1.2-1.21,1.36-1.62.03-.07-.08-.18-.16-.24-.15-.18-.27-.35-.28-.6-.05-.97,2.88-4.17,2.68-4.34-1.62.49-3.05,1.41-4.4,2.4-.1.2-.06.43.12.67l-2.35,1.66c-.96,1.04-1.95,1.96-2.97,2.74l-.35-.02c-.61.77-4.44,4.8-2.59,1.39,1.01-1.2,2.09-2.33,3.25-3.38l.12-.37c-1.17-.04-2.33-.1-3.5-.16-2.23-.1-2.16-.5-3.85-1.55-1.87-1.16-3.88-2.49-6.09-2.85l3.33,3.61c.28.69-.18,1.03-.86.93-.02.24.14.41.48.52-4.15-.04-8.41-1.73-11.42-4.12-.36-.22-.86-.56-1.2-.8-.34-.14-.46.07-.3.39,1.63,1.82,3.5,3.47,5.6,4.75-3.72-.18-7.53-1.01-10.98-2.43-2.73-1.13-4.99-2.66-7.4-4.31-1.46-.64-3.14-1.51-4.44-2.43-.44-.31-2.05-1.47-2.1-1.92-.03-.22.12-.26.14-.32l.33-.1c.29-.51.61-.99.98-1.44l2.83-1.76v-.31c-.19-.47-.38-1.1-.55-1.6-.83-1.05-2.58-1.74-3.89-2.14-.49-.15-1.99-.53-2.39-.43-.44.12-.65.18-.26.57.75.58,2.57,2.08.93,2.67v.31s1.12.83,1.12.83c-3.25-.11-6.87.68-9.45,2.66l.05.34c1.05-.11,2.94-.28,3.93-.13.47.07.83.43.69.93-.14.5-2.33,1.49-2.92,1.89-2.45,1.64-4.72,4.16-5.83,6.91l3.82-1.98c.46-.2.93-.36,1.38-.55.75-.05,1.45-.28,2.09-.66.07.75.17,1.51.3,2.25-.13,1.19-.18,2.26.04,3.49.14.78.87,4.08,1.31,4.42.19.15.6-.1.53-.38-.06-.25-.64-4.15-.45-4.07.57.73,4.29,4.71,4.86,4.5.12-.07.2-.18.26-.34l.31-.05c.89-1.97,7.4-4.28,8.99-3.4.23.13-.17.39-.34.41-2.91.64-5.45,1.87-8.12,3.23l-.17.34-.33.23c1.96,1.83,4.76,3.26,7.32,4.22l.36-.04.3-.06c.93-2.16,3.18-5.19,5.72-5.36.07,0-.4.55-.52.57-1.21.79-2.43,1.71-3.19,2.98-.35.6-.92,1.57.18,1.27,1.93-1.1,4.09-1.7,6.18-2.21l.31.05c1.51-1.93,4.09-3.13,6.55-3.26-3.62,1.51-6.28,3.8-8.58,7.03l-.03.44.43.06c1.24-.81,2.55-1.44,3.95-1.89-.42.37-2.49,2.99-1.99,3.57,3.95.95,7.93,1.67,11.96,2.14.31.03.43-.1.33-.41l.04-.35c-1.5-1.77-2.96-3.86-3.55-6.13-.21-.81-.21-1.61.46-.49,1.42,2.74,2.96,5.27,5.25,7.38l.47.12c.39.28.63.33.63-.25-.36-1.37-.79-2.71-1.3-4.02l.16-.32c-.13-.17-.25-1.35-.1-1.21,1.12,2.08,2.89,3.34,4.77,4.65.41.49.85.82,1.31,1.01-.16.36.07.6.71.71,4.74.42,9.68.11,14.43-.56.38-.11.3-.3.13-.61-1.85-.74-3.66-1.53-5.48-2.47,4.63.81,9.56,1.66,14.21,1.74.3,0,1.11.01,1.2-.32.02-.07.02-.15.02-.23l-.24-.45c-2.14-1.17-4.37-2.07-6.71-2.7-1.89-.72-1.09-.78.56-.58,2.33.29,4.49,1.28,6.52,2.41.32.12.42-.04.55-.33.14-.33-1.61-2.81-1.99-3.11-.06-.06-.23-.35-.2-.38.23-.17,1.57-.13,1.93-.11,1.07.04,2.15.12,3.21.28l.24-.23c-.07-.11-.14-.22-.23-.32-.09-.09-.17-.18-.27-.24-2.87-1.48-6.07-2.26-9.27-2.6,2.75-.93,5.98.18,8.36,1.68.84.64,1.75,1.22,2.61,1.75.07.33.37.64.9.91l-5.46-.24c-.23.13-.28.27-.25.53.02.15,1.34,2.39,1.52,2.62l.37.18.38.21c1.15-.02,4.99-.55,5.79-1.41.4-.43,1.22-2.46,1.28-3.07,0-.08-.14-.15-.25-.2.48-.32.34-1.59,0-2.07.72,1.18,1.39,2.35,1.74,3.73l.3.33c1.21-.33,7.03-3.34,7.15-4.15.01-.09-.14-.16-.25-.19l-.11-.32c-2.69-1.58-5.35-2.81-8.3-3.71-.06-.15.03-.27.19-.32,2.18-.65,7.41,1.99,8.58,4.04l.31.04.3.09c.79-.32,2.72-2.35,2.93-3.25.71.59.97,1.45,1.08,2.34.61.54,1.05-.67,1.2-1.15.87-2.79,1.28-5.46,1.38-8.38.62.34,1.26.54,1.93.61.58.25,1.21.42,1.78.69l3.55,1.85c-.49-.97-.98-1.97-1.62-2.84Z"/>
        <g>
          <path class="cls-12" d="M103.89,130.94l-.08.47c-.62.78-1.49,1.73-2.32,2.2-.6.62-2.53,2.85-3.2,3.02-.42.1-.57-.31-.53-.67.11-1.16,3.14-3.8,4-4.68-1.07-.23-2.3.15-3.33-.2,1.77.08,3.72.04,5.47-.13Z"/>
          <path class="cls-29" d="M90.95,131.21c.42.13.93.45,1.2.8-4.44,0-8.45-1.25-11.91-4.03-.07-.05-.51-.29-.23-.37,2.31,1.44,5,2.31,7.63,2.98,1.04.27,2.35.34,3.31.62Z"/>
          <path class="cls-15" d="M101.49,133.61c.81-.84,1.62-1.88,2.4-2.67.9-.91,1.77-1.64,2.8-2.4.17.16.47.59.34.8-.1.15-2.04,1.43-2.41,1.74-.91.76-1.71,1.79-2.61,2.46-.11.08-.45.34-.53.07Z"/>
          <path class="cls-7" d="M125.9,139.74c.21-.45.93-.01,1.2.27.15.06,1.72.98,1.47,1.2l-6.14-.26c.56.95,1.32,2.05,1.73,3.07.18.43.7,1.65.13,1.93-.73.36-1.66-.65-2.27-1-.93-.53-1.96-1.11-2.94-1.53-1.15-.49-4.85-1.38-5.4-2.07-.11-.13-.25-.17-.2-.4,3.07-.38,6.32,1.04,8.94,2.53.21-.26-1.05-2.08-1.28-2.39-.26-.36-1.61-1.47-.4-1.62s3.85.05,5.14.27Z"/>
          <path class="cls-20" d="M58.93,128.4c-.55-.35-3.14-.15-3.41-.52-.49-.67,1.1-1.17,1.61-1.22,1.76-.15,3.65.49,4.81,1.84,1.35-.52,3.31-1.22,4.6-.3-3.1,1.19-5.11,3.49-7.33,5.8.03-.92.43-1.81.61-2.66.05-.26-.12-.48-.02-.81.13-.46.76-.93,1.01-1.33v-.23s-1.64-.3-1.64-.3l-.23-.28Z"/>
          <path class="cls-7" d="M91.35,146.82c.33.37,2.17,2.31.77,2.11-.78-.11-2.84-2.01-3.44-2.64-1.47-1.56-3.77-4.99-3.88-7.14-.07-1.3.63-.63,1.05.03.87,1.39,1.44,2.81,2.45,4.22s1.99,2.24,3.04,3.43Z"/>
          <path class="cls-9" d="M75.74,138.54c.52-.57.71-.93,1.42-1.45,1.63-1.18,3.74-2.1,5.78-2.02-.02.12.04.3-.02.38-.09.14-2.54,1.26-2.96,1.51-3.1,1.85-3.81,3.32-5.96,5.84-.26.31-.61.49-.87.8-.1.02-.08-.12-.06-.2.29-1.12.98-2.29,1.33-3.41.21-.1,1.08-1.19,1.33-1.47Z"/>
          <path class="cls-14" d="M59.73,136.94c-.66.2-.92.2-.67-.53.75-2.21,6.84-4.19,9-3.86.54.08.91.54.4.91-.41.29-2.93.85-3.69,1.11-1.7.6-3.6,1.92-5.04,2.37Z"/>
          <path class="cls-25" d="M140.98,136.94c-.16.31.32.57-.67.27-1.19-.37-2.99-1.71-4.31-2.29-.66-.29-4.18-1.38-4.3-1.57-.21-.34-.01-.63.33-.74,2.05-.67,8.07,2.09,8.95,4.34Z"/>
          <path class="cls-19" d="M140.43,132.25c-.15.1-.71.01-.92-.04-1.04-.28-2.46-1.38-3.66-1.81s-2.57-.59-3.81-1c-.43-.41.19-.67.54-.8,1.74-.64,4.17.36,5.69,1.24.36.21,3.02,1.87,2.16,2.41Z"/>
          <path class="cls-21" d="M125.9,139.74c-3.28-1.74-6.95-2.74-10.67-2.94,1.87-1.44,4.93-.75,7.01,0,1.78.64,2.83,1.54,4.32,2.62.2.15.59.29.55.58-.14-.05-.99-.23-1.2-.27Z"/>
          <path class="cls-2" d="M96.82,146.68c.11.46-.77.26-.97.23-1.51-.25-4.56-3-5.17-4.37-.34-.75-.34-1.59-.2-2.4.67.99,1.36,2.16,2.2,3.01,1.34,1.35,3.06,1.96,4.14,3.53Z"/>
          <path class="cls-16" d="M107.49,132.94c.29.02.5.23.4.53-1.08,1.37-2.37,3.11-3.73,4.2-.44.35-.94.88-1.55.47-.42-.57,1.34-2.5,1.76-2.93.5-.52,2.5-2.31,3.12-2.28Z"/>
          <path class="cls-31" d="M139.34,126.97c1.12-.14,3.76.94,4.23,1.97.23.5.08.85-.5.77-.8-.11-2.13-.88-2.97-1.18-.43-.15-2.28-.46-2.2-.85.29-.45.92-.65,1.43-.71Z"/>
          <path class="cls-26" d="M58.93,128.4c.84.01,1.58.33,2.4.4-.06.2-.35.35-.53.4-.6.18-1.43.18-2.11.36-1.25.34-2.41.96-3.63,1.37.17-1.6,2.42-2.55,3.87-2.53Z"/>
        </g>
      </g>
    </g>
  </g>
</svg>