<?xml version="1.0" encoding="UTF-8"?>
<svg id="_레이어_1" data-name="레이어 1" xmlns="http://www.w3.org/2000/svg" viewBox="0 0 200 200">
  <defs>
    <style>
      .cls-1 {
        fill: #e0e4e5;
      }

      .cls-2 {
        fill: #242321;
      }

      .cls-3 {
        fill: #020304;
      }

      .cls-4 {
        fill: #22211f;
      }

      .cls-5 {
        fill: #fcfcfc;
      }

      .cls-6 {
        fill: #fcfdfc;
      }

      .cls-7 {
        fill: #333230;
      }

      .cls-8 {
        fill: #323230;
      }

      .cls-9 {
        fill: #222220;
      }

      .cls-10 {
        fill: #6a9c4a;
      }

      .cls-11 {
        fill: #32312f;
      }

      .cls-12 {
        fill: #fdfefd;
      }

      .cls-13 {
        fill: #232321;
      }

      .cls-14 {
        fill: #fbfcfc;
      }

      .cls-15 {
        fill: #79b251;
      }

      .cls-16 {
        fill: #e1e5e6;
      }

      .cls-17 {
        fill: #31312f;
      }

      .cls-18 {
        fill: #31302e;
      }

      .cls-19 {
        fill: #e1e5e8;
      }

      .cls-20 {
        fill: #7ab352;
      }

      .cls-21 {
        fill: #010203;
      }

      .cls-22 {
        fill: #30302e;
      }

      .cls-23 {
        fill: #fcfdfd;
      }

      .cls-24 {
        fill: #e3e7e8;
      }

      .cls-25 {
        fill: #fdfdfd;
      }
    </style>
  </defs>
  <path class="cls-21" d="M62.21,145.92c-.89-2.13-1.36-4.74-.97-7.02.84-4.91,5.76-8.56,10.71-7.21-2.14-2.55-3.6-5.64-4.1-8.95-1.02-6.7,1.57-12.91,5.97-17.83-3.15-2.26-5.91-5.02-7.81-8.43-5.14-9.22-3.11-20.76,1.56-29.72-6.45-2.9-7.22-11.11-2.81-16.24,5.04-5.85,14.02-5.94,17.74,1.26,10.81-5.67,24.14-5.73,34.94-.02,1.56-2.83,4.24-5.08,7.54-5.45,11.63-1.31,18.53,14.62,7.53,20.52,1.49,2.86,2.67,5.9,3.43,9.04,1.92,7.97,1.51,15.95-3.33,22.77-1.75,2.46-4,4.53-6.47,6.27,6.99,7.21,8.7,18.77,2,26.79,4.84-1.28,9.58,2.08,10.56,6.87.49,2.4.02,5.37-.94,7.62l.08.42c-3.28,7-10.63,8.77-17.47,5.8-2.87-1.17-5.74-2.19-8.62-3.06-3.89.76-7.69,1.37-11.88,1.36-4.08-.01-7.6-.63-11.39-1.39-2.8.8-5.59,1.78-8.38,2.95-6.56,2.77-13.71,2.01-17.37-4.67-.42-.55-.6-1.11-.54-1.66Z"/>
  <g>
    <g>
      <path class="cls-19" d="M135.14,82.61c.21.13.12.47.13.69.14,11.22-5.54,18.85-15.65,23.19-7.85,3.37-16.76,4.07-25.22,3.35-.37-.09-.7-3.59-2.67-.27-9.81-1.39-20.45-5.85-24.88-15.3-1.35-2.89-1.96-6.04-2.14-9.22-.02-.42-.09-1.06.12-1.43.23,4.23,2.31,8.84,5,12.05,12.46,14.9,47.18,14.87,60,.44,3.16-3.56,5.38-8.68,5.31-13.49Z"/>
      <g>
        <path class="cls-11" d="M131.53,65.24c-2.26-3.91-5.53-7.56-9.14-10.28-.46-.35-3.07-1.99-3.18-2.2-.22-.4,1-1.95,1.32-2.31,2.55-2.77,6.81-3.1,10.07-1.46,6.49,3.25,8.27,12.96.92,16.25Z"/>
        <path class="cls-7" d="M72.67,48.05c3.51-.36,6.88,1.33,8.25,4.63-1.19.91-2.48,1.66-3.66,2.58-3.54,2.77-6.45,6.2-8.87,9.97-8.56-4.21-4.25-16.3,4.28-17.18Z"/>
      </g>
      <g>
        <path class="cls-12" d="M135.14,82.61c.45,8.11-4.85,14.94-11.67,18.88-13.32,7.69-35.33,7.63-48.29-.83-5.73-3.74-10.38-10.06-10.35-17.05-.2-3.82,1.42-9.71,2.94-13.23,10.12-23.45,41.33-28.5,58.44-9.5,4.98,5.53,8.81,14.24,8.93,21.73Z"/>
        <path class="cls-3" d="M106.83,93.51c.34-.31,1.04-.41,1.34.01.66.93-1.07,2.43-1.77,2.87-2.04,1.27-4.72.87-6.31-.92-1.69,1.57-3.96,2.21-6.12,1.14-.83-.41-2.94-2.14-2.05-3.09s1.56.54,2.19,1.07c1.09.91,2.51,1.14,3.78.4,1.48-.87,1.37-1.95,1.27-3.51-1.63-.45-4.87-2.57-3.71-4.56,1.24-2.12,7.68-2.11,9.03-.2,1.2,1.7-.83,3.39-2.19,4.16-.31.18-1.29.49-1.35.65.03,1.12-.33,2.06.54,2.92,1.21,1.21,3.02,1.23,4.35.22.54-.41.67-.89,1-1.19Z"/>
        <g>
          <path class="cls-18" d="M86.78,71.4c3.36-.34,6.28,1.53,7.06,4.86,1.75,7.44-6.48,18.32-14.51,14.26-9.02-4.56-.93-18.28,7.45-19.12Z"/>
          <g>
            <path class="cls-3" d="M87.15,77.02c4.75-.58,5.15,8.09.47,8.58-5.03.53-5.28-8-.47-8.58Z"/>
            <circle class="cls-23" cx="88.26" cy="79.95" r="1.23"/>
          </g>
        </g>
        <g>
          <path class="cls-8" d="M111.63,71.4c8.27-.93,17.79,12.46,10.26,18.37-7.96,6.25-18.31-6.25-15.48-14.23.81-2.28,2.8-3.88,5.22-4.15Z"/>
          <g>
            <path class="cls-3" d="M111.63,77.14c5.17-.88,6.02,7.7,1.69,8.43-5.37.91-5.86-7.72-1.69-8.43Z"/>
            <circle class="cls-14" cx="111.7" cy="79.98" r="1.22"/>
          </g>
        </g>
      </g>
    </g>
    <g>
      <path class="cls-12" d="M107.79,117.2c.21-.1.44-.17.68-.17.96,0,7.79,1.64,7.84,2.04l-.15.37c-3.17,4.11-8.93,5.96-8.49,12.17.03.42.19.87.25,1.31l.84,2.78c.52,1.58,1.69,2.76,3.19,3.46l.21.38c.16.59-.13,1.5-.62,1.87.27.36.02,1.19-.37,1.37-.06.42-.19.62-.46.9-.33.35-3.58,1.06-4.14,1.16-5.03.89-12.32.9-17.05-1.1-.4-.17-.44-.29-.58-.71-.4-.22-.66-1.13-.37-1.5-.44-.47-.81-1.18-.62-1.87l.2-.37c1.5-.72,2.56-2.02,3.12-3.57l.92-2.8c.25-1.85.39-3.2-.37-4.99,4.52,1.76,10.35,2.2,14.82.02,1.04-.51,2.25-1.6.79-2.46-1.93-1.15-4.56-1.48-6.75-1.74,2.33-1.5,4.5-3.33,6.31-5.43.3-.35.54-.78.81-1.13Z"/>
      <g>
        <path class="cls-17" d="M69.45,119.2c.06-2.04.29-3.41.97-5.34,1.01-2.87,2.74-5.82,4.98-7.88,4.75,2.67,10,4.42,15.4,5.23-.48,1.28-1.01,2.54-1.29,3.89l-.46,3.22-.25-.25c-1.68.45-3.31.91-4.87,1.37-.44-.56-.85-1.11-1.22-1.71s-.69-2.17-1.69-1.64c-1.19.63.35,2.85.87,3.59,2.62,3.78,8.96,6.7,8.79,11.5-.84,1.74-3.36,2.43-5.2,2.5-7.47.29-15.43-7.06-16.03-14.49Z"/>
        <path class="cls-4" d="M90.68,131.18c-.14,3.95-4.54,5.47-7.9,4.96-8.05-1.22-13.58-9.13-13.33-16.95.48,1.39.76,2.85,1.35,4.2.97,2.23,2.9,4.67,4.76,6.22,3.92,3.27,11.02,5.86,15.11,1.56Z"/>
        <path class="cls-15" d="M108.16,114.2c-3.37,5.29-8.72,9.66-14.86,11.24.75-2.64,2.74-4.67,4.81-6.36,2.85-2.34,6.41-4.16,10.05-4.87Z"/>
        <path class="cls-20" d="M93.05,110.58c.08.09.51,2.06.57,2.37.68,3.77.28,7.61-1.46,11.04l-.86,1.33c-.29-1.21-.62-2.44-.75-3.68-.32-3.18.36-8.21,2.22-10.89.06-.08.08-.36.28-.16Z"/>
        <path class="cls-10" d="M106.04,126.44c.06.32-.05.19-.18.26-.44.22-1.18.44-1.67.58-3.55,1-7,.8-10.52-.22l3.99-1.57c2.86-.44,5.7-.13,8.37.94Z"/>
      </g>
      <path class="cls-16" d="M87.93,139.68s-.09-.01-.12,0c-.08-.71-.97-1.42-.75-2.12,2.58-.73,4.06-2.16,5.12-4.62-.4,2.88-1.36,5.47-4.25,6.74Z"/>
      <path class="cls-1" d="M113.16,137.68l-.87,1.87s-.09.02-.12,0c-3.09-1.41-3.84-3.44-4.25-6.62.86,2.37,2.8,4.1,5.24,4.75Z"/>
      <g>
        <path class="cls-22" d="M130.52,118.07c.48,7.89-8.61,16.28-16.36,15.58-1.65-.15-3.94-.83-4.75-2.34-.28-4.94,5.93-7.68,8.59-11.45.52-.74,2.34-3.25.99-3.82-1.05-.44-1.33,1.14-1.74,1.82-.32.55-.71,1.08-1.1,1.59.07-.34-.17-.24-.37-.31-2.55-.9-5.32-1.64-8-1.94.35-.45.76-.86,1.1-1.33.29-.41,1.22-2.15,1.4-2.29l.15-.33c5.04-1.12,10.16-2.77,14.38-6.17l.7-.25c2.38,2.62,5,7.64,5,11.24Z"/>
        <path class="cls-4" d="M125.52,106.83c-3.09,2.55-6.69,4.33-10.52,5.53-.74.23-4.49,1.04-4.72,1.22.36-1.64-2.15-.87-3.1-.66-1.75.39-3.67,1.1-5.27,1.91-1.62-.23-3.29-.27-5.02-.12-1.08-.39-1.48-.04-1.22,1.05l-.25.19-.5-4.25c10.13.6,20.69-.54,29.57-5.73.39-.06.79.59,1.03.86Z"/>
        <path class="cls-9" d="M109.41,131.31c5.12,4.72,13.3.74,17.17-3.74,2.05-2.37,3.93-6.32,3.93-9.49.21.13.12.47.13.69.05,3.66-.51,6.66-2.45,9.79-2.71,4.4-9.25,8.74-14.56,7.47-2.18-.52-4.09-2.41-4.22-4.71Z"/>
        <path class="cls-25" d="M83.94,119.45c-.07-.34.17-.24.37-.31.58-.2,4.56-1.49,4.75-1.31,0,.17,0,.33,0,.5.04,2.18-.04,4.22.5,6.37-1.98-1.65-4.02-3.21-5.62-5.24Z"/>
        <path class="cls-18" d="M101.92,114.83c-1.06.54-2.02,1.19-3,1.87-1.08.11-2.17.2-3.27.25l-.22-.25c.01-.25,0-.5,0-.75.01-.38-.07-.96.03-1.29.17-.59.88-.22,1.28-.21,1.48.03,3.34-.17,4.76-.01.28.03.43.04.43.38Z"/>
        <path class="cls-5" d="M98.92,116.7c-1.32.92-2.56,1.91-3.75,3,.08-1,.2-1.99.25-3,1.14.04,2.37-.36,3.5,0Z"/>
      </g>
      <g>
        <path class="cls-24" d="M111.41,147.42c-1.56.18-3.13.64-4.7.86-3.87.54-8.2.57-12.08.13-1.95-.22-3.9-.76-5.82-.98l-.35-.22c.23-1.27.32-2.55.27-3.83l.21-.32c.21.31.63.47.97.59,5.22,2,14.25,1.98,19.54.24.64-.21,1.61-.4,1.72-1.09l.19.44c-.15,1.24-.05,2.5.21,3.72l-.15.46Z"/>
        <g>
          <path class="cls-13" d="M127.14,148.67l.19-.22c1.02.4,1.79.16,2.76-.25l.18.22c.08,0,.26.11.41.08,2.77-.48,4.58-2.77,6.08-4.95-.43,1.65-1.26,3.38-2.37,4.69-6.12,7.18-13.97,1.59-21.01-.47-.8-.23-1.15-.44-1.97-.34-.37-1.57-.5-3.02-.25-4.62.08-.5.24-.91.37-1.37.43.21.48.71.75,1.06,1.32,1.68,7.93,4.25,10.18,5.06,1.69.61,2.92.89,4.69,1.12Z"/>
          <path class="cls-13" d="M113.16,137.68c2.41.63,4.33.4,6.65-.41,1.03-.36,1.99-.86,2.97-1.34-.28.76-1.01,1.7-1.12,2.5-2.63,1.44-6.14,2.39-9.07,1.38-.2-.07-.28-.25-.3-.26-.37-.09.49-1.76.57-1.82.09-.06.2-.07.3-.05Z"/>
          <path class="cls-12" d="M130.27,148.42c-.47.05-1.02.47-1.69.5-.58.02-.92-.18-1.43-.25-4.38-1.97-1.77-8.99,2.72-7.53,3.16,1.03,3.08,5.67.4,7.28Z"/>
          <g>
            <path class="cls-18" d="M136.76,143.55c-.79,1.86-2.44,3.72-4.27,4.61-.54.26-2.04.99-2.22.26l.06-.34c2.13-1.46,2.38-5.31-.11-6.53-4.21-2.06-7.19,4.74-3.18,6.79l.11.33-.41.2c-4.21-.77-8.69-2.51-12.43-4.6-1.19-.66-2.51-1.44-2.77-2.84.18-.64.37-1.26.62-1.87.04-.11.08-.11.12,0l.26-.08c2.81,1.12,6.06.21,8.68-1.1l.43.06c-.1.67.29,1.32.94.88.21-.14,1.01-1.89,1.3-2.32,2.39-3.53,6.7-5.25,10.41-2.41,2.85,2.18,3.33,5.65,2.46,8.97Z"/>
            <path class="cls-6" d="M131.36,136.46c2.3-.59,2.02,3.11.09,3.1-1.58-.01-1.43-2.75-.09-3.1Z"/>
            <path class="cls-6" d="M127.11,136.46c2.1-.55,2.3,3.41.1,3.09-1.34-.2-1.35-2.76-.1-3.09Z"/>
            <path class="cls-6" d="M133.18,142.01c-1.12-1.23,1.34-3.43,2.26-1.82.73,1.29-1.35,2.81-2.26,1.82Z"/>
          </g>
        </g>
        <g>
          <path class="cls-2" d="M72.95,148.67c3.68-.5,7.81-2.28,11.2-3.85,1.13-.52,3.21-1.46,3.79-2.58.24-.46.21-1.4.62-.69.13.49.31.99.37,1.5.2,1.45.01,2.35-.2,3.75-.03.23-.09.41.07.63-.28-.03-.56-.22-.88-.07-7.1,1.87-15.88,8.25-22.1,1.13-1.24-1.42-2.03-3.12-2.5-4.93.94,1.31,1.68,2.57,3.01,3.55s1.86,1.12,3.36,1.32l.21-.21c.98.42,1.78.63,2.82.25l.22.22Z"/>
          <path class="cls-2" d="M87.06,137.55c.32.59.63,1.19.93,1.82l-.18.3c-2.07.83-4.76.6-6.84-.09l-2.53-1.03-1.12-2.62c2.25,1.19,4.95,2.31,7.55,2.12.75-.05,1.47-.29,2.19-.5Z"/>
          <path class="cls-12" d="M72.95,148.67c-.53.07-1.01.28-1.56.25-.62-.04-1.18-.43-1.69-.5-1.84-1.43-2.6-3.67-1.35-5.78,1.6-2.7,5.3-1.91,6.45.74.9,2.07.1,4.24-1.85,5.29Z"/>
          <g>
            <path class="cls-17" d="M63.33,143.55c-.99-3.79-.27-7.89,3.58-9.72s7.56.42,9.63,3.81c.2.33.73,1.65.92,1.76.4.23,1.08-.36.98-.85l.2-.19c2.72,1.24,5.75,2.17,8.77,1.2l.4.12c.04-.11.08-.11.12,0,.25.62.45,1.23.62,1.87-.42.06-.26-.11-.18-.01.17.21-.45,1.19-.64,1.39-1.41,1.5-5.91,3.26-7.79,3.99-1.22.47-5.74,2.17-6.72,1.88-.1-.03-.19-.08-.28-.13l.1-.34c2.93-1.71,2.25-6.17-1-7.01-3.91-1-5.46,4.64-2.39,6.74l.05.36c-.33.37-1.26.06-1.72-.1-2.06-.73-3.84-2.76-4.65-4.77Z"/>
            <path class="cls-6" d="M67.79,136.46c2.12-.63,2.72,3.34.61,3.09-1.53-.18-1.78-2.74-.61-3.09Z"/>
            <path class="cls-25" d="M72.16,136.46c2.13-.48,2.27,3.41.11,3.09-1.26-.18-1.46-2.79-.11-3.09Z"/>
            <path class="cls-5" d="M65.17,139.7c1.88-.43,2.62,2.37,1.09,2.59-1.73.25-2.48-2.27-1.09-2.59Z"/>
          </g>
        </g>
      </g>
    </g>
  </g>
</svg>