<?xml version="1.0" encoding="UTF-8"?>
<svg xmlns="http://www.w3.org/2000/svg" version="1.1" xmlns:inkscape="http://www.inkscape.org/namespaces/inkscape" xmlns:xlink="http://www.w3.org/1999/xlink" viewBox="0 0 1254 1254">
  <!-- Generator: Adobe Illustrator 30.8.1, SVG Export Plug-In . SVG Version: 2.1.4 Build 1)  -->
  <defs>
    <style>
      .st0 {
        fill: url(#_무제_그라디언트_31);
      }

      .st1 {
        fill: #f5c85a;
      }

      .st2 {
        fill: #fe7355;
      }

      .st3 {
        fill: #fff;
      }

      .st4 {
        fill: #fffefa;
      }

      .st5 {
        fill: #75020b;
      }

      .st6 {
        fill: #ffdf85;
      }

      .st7 {
        fill: #e9ab43;
      }

      .st8 {
        fill: none;
      }

      .st9 {
        fill: #c4dfdb;
      }

      .st10 {
        fill: #90050e;
      }

      .st11 {
        fill: #1c1d19;
      }

      .st12 {
        fill: #fd5d72;
      }

      .st13 {
        clip-path: url(#clippath);
      }

      .st14 {
        fill: url(#_무제_그라디언트_3);
      }
    </style>
    <linearGradient id="_무제_그라디언트_3" data-name="무제 그라디언트 3" x1="203" y1="727.5" x2="754.5" y2="-24.9" gradientTransform="translate(0 1254) scale(1 -1)" gradientUnits="userSpaceOnUse">
      <stop offset="0" stop-color="#1c1d19"/>
      <stop offset="1" stop-color="#191916"/>
    </linearGradient>
    <linearGradient id="_무제_그라디언트_31" data-name="무제 그라디언트 3" x1="203.1" y1="727.5" x2="754.6" y2="-24.9" gradientTransform="translate(1250 1254) rotate(-180)" xlink:href="#_무제_그라디언트_3"/>
    <clipPath id="clippath">
      <path class="st8" d="M595.4,764.6c9.1,0,18.9,1.3,28.7,1.3s19.6-1.3,27.4-1.3,9.8,3.3,9.8,9.8c0,20.2-16.3,40.5-37.2,40.5s-39.8-20.2-39.8-40.5,3.3-9.8,11.1-9.8Z"/>
    </clipPath>
  </defs>
  <g id="panda-04-child-svg-1" data-stage="4">
    <g id="panda-04-child-background" data-editable="part" data-part="background" inkscape:groupmode="layer" inkscape:label="諛곌꼍 쨌 ④린硫щ챸">
      <rect id="panda-04-child-rect-5" class="st9" width="1254" height="1254"/>
    </g>
    <g>
      <g id="panda-04-child-seated-body" data-group="seated-body" inkscape:groupmode="layer" inkscape:label="됱 紐쨌 꾧린 대┛怨듯넻 먯꽭">
        <g id="panda-04-child-torso" data-editable="part" data-part="torso" inkscape:groupmode="layer" inkscape:label="寃 紐명넻 쨌 꾩꽦">
          <path id="panda-04-child-path-7" class="st11" d="M624.9,811.1c80.9,0,150.5,65.5,161.7,154.6,8.2,69.6-10.2,126.9-53.2,142.3-33.8,13.3-68.6,14.3-108.5,14.3s-74.7-1-108.5-14.3c-43-15.4-61.4-72.7-53.2-142.3,11.3-89.1,80.9-154.6,161.7-154.6Z"/>
        </g>
        <g id="panda-04-child-belly" data-editable="part" data-part="belly" inkscape:groupmode="layer" inkscape:label="諛쨌 꾩꽦">
          <path id="panda-04-child-path-8" class="st4" d="M624.9,841.9c69.6,0,124.9,66.5,139.2,142.3,13.3,78.8-46.1,120.8-139.2,120.8s-152.5-42-139.2-120.8c14.3-75.8,69.6-142.3,139.2-142.3Z"/>
        </g>
        <g id="panda-04-child-leg-right" data-editable="part" data-part="leg-right" inkscape:groupmode="layer" inkscape:label="ㅻⅨ履ㅻ━ 쨌 욎쑝濡대 κ렐 諛">
          <path id="panda-04-child-path-10" class="st11" d="M738.9,992.1c-36.3,5.9-70.3,37.5-80.9,73.8-11.7,39.9,15.2,73.8,62.1,73.8s91.4-31.6,107.8-71.5c16.4-39.9,5.9-76.2-28.1-85.6-19.9-5.9-43.4,1.2-61,9.4Z"/>
        </g>
        <g id="panda-04-child-leg-right1" data-name="panda-04-child-leg-right" data-editable="part" data-part="leg-right" inkscape:groupmode="layer" inkscape:label="ㅻⅨ履ㅻ━ 쨌 욎쑝濡대 κ렐 諛">
          <path id="panda-04-child-path-101" data-name="panda-04-child-path-10" class="st11" d="M450,982.7c-34,9.4-44.5,45.7-28.1,85.6,16.4,39.9,57.4,71.5,107.8,71.5,46.9,0,73.8-34,62.1-73.8-10.5-36.3-44.5-68-80.9-73.8-17.6-8.2-41-15.2-61-9.4Z"/>
        </g>
      </g>
      <g>
        <g id="panda-01-base-part-arm-left" data-part="arm-left" inkscape:groupmode="layer" inkscape:label="쇱そ 湲곕낯 ">
          <path id="panda-01-base-arm-left-outline-1" class="st14" d="M528.5,797c22.4,6,29.3,22.4,27.6,42.2-3.4,28.4-20.7,56-32.7,86.2-10.3,25-14.7,50.8-24.1,69.8-7.8,18.1-21.5,28.4-40.5,27.6-25.9,0-44.8-12.9-51.7-31.9-14.7-37.1,11.2-85.3,41.4-123.2,26.7-33.6,58.6-76.7,80.1-70.7Z" inkscape:label="쇱そ 湲곕낯 쨌 꾪삎 1"/>
        </g>
        <g id="panda-04-child-block" data-group="block" inkscape:groupmode="layer" inkscape:label="먯뿉 釉붾줉 섎굹">
          <g id="panda-04-child-block-front" data-editable="part" data-part="block-front" inkscape:groupmode="layer" inkscape:label="釉붾줉 쨌 욌㈃">
            <path id="panda-04-child-path-26" class="st1" d="M422.1,961.8l57.3,15.4v63.5l-57.3-16.4v-62.4Z"/>
          </g>
          <g id="panda-04-child-block-side" data-editable="part" data-part="block-side" inkscape:groupmode="layer" inkscape:label="釉붾줉 쨌 녿㈃">
            <path id="panda-04-child-path-27" class="st7" d="M479.4,977.2l37.9-24.6v63.5l-37.9,24.6v-63.5Z"/>
          </g>
          <g id="panda-04-child-block-top" data-editable="part" data-part="block-top" inkscape:groupmode="layer" inkscape:label="釉붾줉 쨌 쀫㈃">
            <path id="panda-04-child-path-28" class="st6" d="M422.1,961.8l38.9-24.6,56.3,15.4-37.9,24.6-57.3-15.4Z"/>
          </g>
        </g>
      </g>
      <g id="panda-01-base-part-arm-left1" data-name="panda-01-base-part-arm-left" data-part="arm-left" inkscape:groupmode="layer" inkscape:label="쇱そ 湲곕낯 ">
        <path id="panda-01-base-arm-left-outline-11" data-name="panda-01-base-arm-left-outline-1" class="st0" d="M801.5,867.6c30.2,37.9,56,86.2,41.4,123.2-6.9,19-25.9,31.9-51.7,31.9-19,.9-32.7-9.5-40.5-27.6-9.5-19-13.8-44.8-24.1-69.8-12.1-30.2-29.3-57.7-32.7-86.2-1.7-19.8,5.2-36.2,27.6-42.2,21.5-6,53.4,37.1,80.1,70.7Z" inkscape:label="쇱そ 湲곕낯 쨌 꾪삎 1"/>
      </g>
      <g id="panda-04-child-scarf-size" data-group="scarf-size" inkscape:groupmode="layer" inkscape:label="대┛ㅼ뭅">
        <g id="panda-04-child-scarf" data-group="scarf" inkscape:groupmode="layer" inkscape:label="ㅼ뭅">
          <g id="panda-04-child-scarf-cloth" data-editable="part" data-part="scarf-cloth" inkscape:groupmode="layer" inkscape:label="ㅼ뭅쨌 泥꾩껜">
            <path id="panda-04-child-path-11" class="st10" d="M492.3,828.3c32.4-16.2,85.5-22.8,132.7-22.8s102.5,6.6,132.7,22.8c9.6,15.5,8.8,35.4.7,50.1-14,25.1-40.5,45.7-69.3,67.1-22.1,17-45.7,31.7-64.1,43.5-20.6-11.8-44.2-27.3-67.1-42.8-28.7-21.4-51.6-42-64.9-64.1-10.3-17-13.3-38.3-.7-53.8Z"/>
          </g>
          <g id="panda-04-child-scarf-fold" data-editable="part" data-part="scarf-fold" inkscape:groupmode="layer" inkscape:label="ㅼ뭅쨌 묓엺 硫">
            <path id="panda-04-child-path-12" class="st5" d="M487.1,862.2c91.4,27,183,27,274.9,0-3.4,13.3-49.4,30.5-137.8,51.6-75.2-20.1-120.9-37.3-137.1-51.6Z"/>
          </g>
        </g>
      </g>
      <g id="panda-04-child-head" data-group="head" inkscape:groupmode="layer" inkscape:label="癒몃━ 꾩껜">
        <g id="panda-04-child-ears" data-group="ears" inkscape:groupmode="layer" inkscape:label="묒そ 洹">
          <g id="panda-04-child-ear-left" data-editable="part" data-part="ear-left" inkscape:groupmode="layer" inkscape:label="쇱そ 洹">
            <path id="panda-04-child-path-13" class="st11" d="M352.1,519.7c0-43.7,35.8-79,79.9-79s79.9,35.4,79.9,79-35.8,79-79.9,79-79.9-35.4-79.9-79Z"/>
          </g>
          <g id="panda-04-child-ear-right" data-editable="part" data-part="ear-right" inkscape:groupmode="layer" inkscape:label="ㅻⅨ履洹">
            <path id="panda-04-child-path-14" class="st11" d="M742.4,518c0-44.1,35.8-79.9,79.9-79.9s79.9,35.8,79.9,79.9-35.8,79.9-79.9,79.9-79.9-35.8-79.9-79.9Z"/>
          </g>
        </g>
        <g id="panda-04-child-hair-tuft" data-editable="part" data-part="hair-tuft" inkscape:groupmode="layer" inkscape:label="癒몃━">
          <path id="panda-04-child-path-15" class="st4" d="M569.8,504.1c-9.3-24.7,2.1-50.4,23.7-57.6s26.7,1,32.9,10.3c4.1-27.8,27.8-41.1,49.4-31.9,22.6,10.3,20.6,35,11.3,53.5-12.3,30.8-88.4,46.3-117.2,25.7Z"/>
        </g>
        <g id="panda-04-child-face-base" data-editable="part" data-part="face-base" inkscape:groupmode="layer" inkscape:label="쇨뎬 諛뷀깢 쨌 꾩꽦">
          <path id="panda-04-child-path-16" class="st4" d="M624.9,460.4c-79.2,0-125.3,21.8-160.1,47.9-61.8,46.3-100.1,116.6-100.1,182.7s28.7,113.1,76.6,141.8c41.8,25.1,113.1,35.7,183.6,35.7s141.8-10.6,183.6-35.7c47.9-28.7,74.8-62.7,74.8-141.8s-36.5-136.4-98.3-182.7c-34.8-26.1-80.9-47.9-160.1-47.9Z"/>
        </g>
        <g id="panda-04-child-facial-features" data-group="facial-features" inkscape:groupmode="layer" inkscape:label="쒖젙 몃 뚯툩">
          <g id="panda-04-child-eye-left" data-group="eye-left" inkscape:groupmode="layer" inkscape:label="쇱そ ">
            <g id="panda-04-child-eye-patch-left" data-editable="part" data-part="eye-patch-left" inkscape:groupmode="layer" inkscape:label="쇱そ 寃 덈Т">
              <path id="panda-04-child-path-17" class="st11" d="M564.2,707.3c-16.3,35-53.6,52.2-83.2,38.4-29.6-13.8-40.4-53.4-24.1-88.4,16.3-35,53.6-52.2,83.2-38.4,29.6,13.8,40.4,53.4,24.1,88.4Z"/>
            </g>
            <g id="panda-04-child-eye-white-left" data-editable="part" data-part="eye-white-left" inkscape:groupmode="layer" inkscape:label="쇱そ ">
              <ellipse id="panda-04-child-ellipse-18" class="st3" cx="529.2" cy="673.6" rx="15.4" ry="22.4"/>
            </g>
          </g>
          <g id="panda-04-child-eye-right" data-group="eye-right" inkscape:groupmode="layer" inkscape:label="ㅻⅨ履">
            <g id="panda-04-child-eye-patch-right" data-editable="part" data-part="eye-patch-right" inkscape:groupmode="layer" inkscape:label="ㅻⅨ履寃 덈Т">
              <path id="panda-04-child-path-19" class="st11" d="M792.1,657.3c16.3,35,5.5,74.6-24.1,88.4-29.6,13.8-66.8-3.4-83.2-38.4-16.3-35-5.5-74.6,24.1-88.4,29.6-13.8,66.8,3.4,83.2,38.4Z"/>
            </g>
            <g id="panda-04-child-eye-white-right" data-editable="part" data-part="eye-white-right" inkscape:groupmode="layer" inkscape:label="ㅻⅨ履">
              <ellipse id="panda-04-child-ellipse-20" class="st3" cx="720.7" cy="673.6" rx="15.4" ry="22.4"/>
            </g>
          </g>
          <g id="panda-04-child-cheek-left" data-editable="part" data-part="cheek-left" inkscape:groupmode="layer" inkscape:label="쇱そ 蹂">
            <path id="panda-04-child-path-21" class="st12" d="M503.1,773.6c0,13.5-15.6,24.4-34.8,24.4s-34.8-10.9-34.8-24.4,15.6-24.4,34.8-24.4,34.8,10.9,34.8,24.4Z"/>
          </g>
          <g id="panda-04-child-cheek-right" data-editable="part" data-part="cheek-right" inkscape:groupmode="layer" inkscape:label="ㅻⅨ履蹂">
            <path id="panda-04-child-path-22" class="st12" d="M813.8,773.6c0,13.5-15.6,24.4-34.8,24.4s-34.8-10.9-34.8-24.4,15.6-24.4,34.8-24.4,34.8,10.9,34.8,24.4Z"/>
          </g>
          <g id="panda-04-child-nose" data-editable="part" data-part="nose" inkscape:groupmode="layer" inkscape:label="肄">
            <path id="panda-04-child-path-23" class="st11" d="M655.4,719.7c0,10.1-14,18.3-31.3,18.3s-31.3-8.2-31.3-18.3,14-18.3,31.3-18.3,31.3,8.2,31.3,18.3Z"/>
          </g>
          <g id="panda-04-child-mouth" data-group="mouth" inkscape:groupmode="layer" inkscape:label="꾩껜">
            <g id="panda-04-child-mouth-cavity" data-editable="part" data-part="mouth-cavity" inkscape:groupmode="layer" inkscape:label="낆븞">
              <path id="panda-04-child-path-24" class="st11" d="M595.4,764.6c9.1,0,18.9,1.3,28.7,1.3s19.6-1.3,27.4-1.3,9.8,3.3,9.8,9.8c0,20.2-16.3,40.5-37.2,40.5s-39.8-20.2-39.8-40.5,3.3-9.8,11.1-9.8Z"/>
            </g>
            <g class="st13">
              <g id="panda-04-child-tongue-mask" data-group="tongue-mask" inkscape:groupmode="layer" inkscape:label="낆븞먯꽌 蹂댁씠">
                <g id="panda-04-child-tongue" data-editable="part" data-part="tongue" inkscape:groupmode="layer" inkscape:label=" 쨌 媛ㅼ쭊 遺遺꾧퉴吏 꾩꽦">
                  <path id="panda-04-child-path-25" class="st2" d="M652.8,803.1c0,12.3-12.9,22.2-28.7,22.2s-28.7-9.9-28.7-22.2,12.9-22.2,28.7-22.2,28.7,9.9,28.7,22.2Z"/>
                </g>
              </g>
            </g>
          </g>
        </g>
      </g>
    </g>
  </g>
</svg>